<?xml version="1.0" encoding="UTF-8"?>
<svg id="Camada_2" data-name="Camada 2" xmlns="http://www.w3.org/2000/svg" viewBox="0 0 80 80">
  <defs>
    <style>
      .cls-1 {
        fill: #f60;
      }
    </style>
  </defs>
  <g id="Camada_2-2" data-name="Camada 2">
    <circle cx="40" cy="40" r="40"/>
    <g id="Camada_2-2" data-name="Camada 2-2">
      <g id="Camada_1-2" data-name="Camada 1-2">
        <g>
          <path class="cls-1" d="m63.07,59.29c-.06,0-.13.01-.19.01-1.53,0-3.04,0-4.56,0h-.85s-.21,0-.21,0c-.09-.06-.09-.13-.13-.2-.51-1.11-1.02-2.21-1.52-3.33-.37-.83-.76-1.66-1.14-2.48-.07-.16-.15-.3-.22-.44-.1-.2-.16-.39-.15-.62.02-.8.02-1.59.02-2.39,0-2.11-.01-4.23-.01-6.34,0-1.45,0-2.9-.01-4.35,0-.14-.01-.28-.03-.42,0-.03-.03-.07-.06-.08-.03-.01-.07.01-.09.04-.07.11-.15.23-.21.35-.36.66-.72,1.34-1.08,2-.48.9-.96,1.79-1.44,2.69-.16.32-.34.65-.51.97-.03.06-.07.11-.1.18-.07-.04-.07-.11-.1-.16-.36-.79-.73-1.56-1.09-2.35-1.15-2.49-2.32-5-3.47-7.5-.06-.14-.04-.25.02-.38.96-1.75,1.92-3.48,2.87-5.23,1.18-2.17,2.37-4.34,3.56-6.49.46-.86.94-1.7,1.41-2.56.09-.17.18-.32.25-.49s.18-.32.34-.42h8.35c.16.12.27.27.34.44.01.04.03.08.06.13l-.03,39.42h0Z"/>
          <path class="cls-1" d="m13.1,59.25c.09-.01.1-.08.13-.15.13-.39.28-.8.42-1.2,1.15-3.24,2.29-6.47,3.45-9.71,1.23-3.45,2.44-6.9,3.67-10.35.57-1.61,1.14-3.2,1.71-4.8.12-.37.22-.73.33-1.1.01-.06.04-.13.06-.2.09.03.1.08.15.13.43.54.87,1.09,1.32,1.62,2.8,3.38,5.59,6.78,8.4,10.16.04.06.1.11.15.17.19.23.4.45.6.68,1.24,1.49,2.47,2.99,3.71,4.48.12.16.25.3.37.45.03.03.06.06.09.1.09-.11.13-.23.19-.32.06-.1.12-.2.16-.31.06-.11.12-.21.18-.32.06-.1.12-.2.16-.31.06-.11.12-.21.18-.32.06-.1.12-.2.16-.31.06-.11.12-.21.18-.32.06-.1.1-.2.19-.32.03.04.04.07.04.08.66,1.4,1.33,2.79,1.99,4.17.85,1.79,1.72,3.58,2.57,5.35.03.07.06.14.1.2.06.1.06.18,0,.27-.07.13-.13.25-.21.38-.28.52-.57,1.04-.84,1.56-.01.03-.03.04-.04.07-.03.08-.1.13-.21.13h-.18c-2.89,0-5.76,0-8.65,0-.36,0-.33,0-.51-.25-1.49-2.09-3.03-4.14-4.56-6.2-.72-.97-1.44-1.94-2.15-2.92-.06-.07-.1-.17-.19-.23-.06.03-.06.08-.07.14-.19.55-.39,1.1-.57,1.63-.9,2.56-1.8,5.14-2.7,7.71-.01.06-.03.11-.06.17h-9.74s0,0,0,0h0Z"/>
          <path class="cls-1" d="m56.04,59.21c-3.32.05-6.63.04-9.9.08-.09-.06-.1-.13-.13-.2-.36-.8-.72-1.61-1.09-2.4-1.52-3.21-3.05-6.41-4.57-9.62-1.73-3.64-3.47-7.29-5.19-10.92-.78-1.63-1.54-3.27-2.35-4.9-.04-.1-.09-.18-.15-.3-.03.04-.06.07-.07.11-.22.51-.4,1.01-.57,1.54-.03.11-.07.23-.1.32-.07.01-.09-.04-.12-.07-.36-.45-.7-.92-1.06-1.37-1.63-2.11-3.26-4.23-4.89-6.34-.06-.07-.12-.16-.18-.23.03-.08.04-.15.07-.23.36-.92.73-1.85,1.09-2.76.19-.52.37-1.06.57-1.58.04-.11.09-.21.15-.31.1-.15.25-.23.45-.23.76,0,1.53-.01,2.29-.01,1.5-.01,2.98-.01,4.47-.03.72,0,1.42,0,2.14-.01.22,0,.39.07.49.27.04.07.07.14.1.23,1.87,3.95,3.75,7.91,5.62,11.85,1.3,2.73,2.6,5.47,3.9,8.22,2.02,4.26,4.03,8.51,6.07,12.77.6,1.28,1.2,2.55,1.81,3.83.25.55.54,1.09.81,1.62.09.18.16.35.25.54.07.01.07.06.09.13h0Z"/>
        </g>
      </g>
    </g>
  </g>
</svg>