<?xml version="1.0" encoding="UTF-8"?>
<svg id="Camada_2" data-name="Camada 2" xmlns="http://www.w3.org/2000/svg" viewBox="0 0 1718.93 578.64">
  <defs>
    <style>
      .cls-1 {
        fill: #f60;
      }

      .cls-1, .cls-2 {
        stroke: #000;
        stroke-miterlimit: 10;
      }

      .cls-2 {
        fill: #fff;
      }

      .cls-3 {
        isolation: isolate;
      }
    </style>
  </defs>
  <g id="Camada_2-2" data-name="Camada 2">
    <g id="Camada_1-2" data-name="Camada 1-2">
      <g>
        <g class="cls-3">
          <g class="cls-3">
            <path class="cls-2" d="m853.41,144.74c0,29.52-21.21,60.65-62.38,60.65h-75.53V5.46h54.57c35.47,0,58.04,26.04,58.04,52.96,0,21.21-14.01,34.35-18.85,34.35,19.22,0,44.15,19.84,44.15,51.97Zm-97.85-100.21v39.07h16.25c9.55,0,18.85-8.19,18.85-19.84s-8.81-19.22-18.11-19.22h-16.99Zm58.66,97.36c0-11.53-7.94-23.07-27.04-23.07h-31.63v47.38h31.75c13.02,0,26.91-8.93,26.91-24.31Z"/>
          </g>
          <g class="cls-3">
            <path class="cls-2" d="m993.68,177.48h-80l-12.77,27.91h-43.41L953,.5h1.24l95.62,204.89h-43.53l-12.65-27.91Zm-15.63-34.23l-24.31-53.45-24.43,53.45h48.74Z"/>
          </g>
          <g class="cls-3">
            <path class="cls-2" d="m1053.21,170.91l32.12-22.57c8.81,14.14,21.58,20.59,38.82,20.59,18.85,0,31.5-7.69,31.5-18.36,0-14.63-23.94-26.17-44.9-36.59-22.45-11.16-47.13-23.44-47.13-55.31,0-34.6,29.27-57.42,65.98-57.42,27.29,0,49.86,11.29,58.91,35.47l-29.64,20.71c-5.95-11.91-17.49-16.74-28.65-16.74-15.01,0-26.17,8.68-26.17,18.98,0,11.91,15.13,16,38.08,26.79,33.11,15.63,53.95,32.49,53.95,63.25,0,36.46-29.77,59.66-72.55,59.66-32.74,0-56.93-13.64-70.32-38.45Z"/>
            <path class="cls-2" d="m1321.22,205.39l-60.77-87.56v87.56h-40.06V5.46h40.06v86.44l56.18-86.44h46.38l-64.12,97.85,71.19,102.07h-48.87Z"/>
            <path class="cls-2" d="m1429.37,45.02v39.07h68.96v40.06h-68.96v41.3h80.37v39.94h-120.55V5.46h120.55v39.56h-80.37Z"/>
            <path class="cls-2" d="m1665.76,45.27h-49.11v160.11h-40.31V45.27h-49.24V5.46h138.66v39.81Z"/>
          </g>
        </g>
        <g class="cls-3">
          <g class="cls-3">
            <path class="cls-2" d="m939.7,479.16c0,47.88-34.4,98.37-101.19,98.37h-122.51V253.25h88.52c57.54,0,94.15,42.25,94.15,85.9,0,34.4-22.73,55.72-30.58,55.72,31.18,0,71.62,32.19,71.62,84.29Zm-158.72-162.55v63.37h26.35c15.49,0,30.58-13.28,30.58-32.19s-14.28-31.18-29.37-31.18h-27.56Zm95.15,157.92c0-18.71-12.88-37.42-43.86-37.42h-51.3v76.85h51.5c21.12,0,43.65-14.48,43.65-39.43Z"/>
          </g>
          <g class="cls-3">
            <path class="cls-2" d="m1167.22,532.27h-129.76l-20.72,45.26h-70.41l154.9-332.34h2.01l155.1,332.34h-70.61l-20.52-45.26Zm-25.35-55.52l-39.43-86.71-39.63,86.71h79.06Z"/>
            <path class="cls-2" d="m1486.28,512.76v64.78h-195.54V253.25h65.18v259.51h130.36Z"/>
            <path class="cls-2" d="m1718.43,512.76v64.78h-195.54V253.25h65.18v259.51h130.36Z"/>
          </g>
        </g>
      </g>
      <g>
        <path class="cls-1" d="m669.1,576.98c-.86.1-1.72.3-2.57.3-20.34.04-40.68.06-61.01.09-3.79,0-7.59.07-11.38.1h-2.75c-1.11-.8-1.3-1.9-1.71-2.87-6.82-15.91-13.63-31.82-20.44-47.74-5.09-11.89-10.17-23.78-15.28-35.66-.92-2.14-1.92-4.25-2.99-6.33-1.46-2.82-2.14-5.74-2.09-8.97.17-11.48.21-22.96.19-34.44-.05-30.36-.18-60.72-.26-91.08-.05-20.82-.07-41.65-.13-62.47,0-2.04-.19-4.08-.37-6.11-.04-.4-.37-.93-.72-1.12-.47-.27-.94.12-1.19.55-.99,1.67-2.02,3.33-2.89,5.06-4.8,9.56-9.55,19.15-14.32,28.72-6.41,12.89-12.83,25.77-19.23,38.66-2.29,4.62-4.53,9.26-6.81,13.88-.42.85-.91,1.65-1.43,2.59-.94-.63-1.1-1.53-1.43-2.29-4.86-11.25-9.71-22.5-14.56-33.75-15.49-35.89-30.96-71.79-46.51-107.66-.88-2.02-.67-3.6.29-5.48,12.82-25.01,25.59-50.05,38.35-75.1,15.85-31.11,31.68-62.23,47.54-93.33,6.27-12.3,12.61-24.57,18.9-36.87,1.19-2.34,2.35-4.7,3.38-7.11,1.05-2.46,2.41-4.64,4.66-6.16h111.53c2.3,1.56,3.56,3.86,4.55,6.35.24.6.47,1.21.7,1.82v566.41h-.02Z"/>
        <path class="cls-1" d="m.5,577.56c1.12-.27,1.42-1.17,1.74-2.13,1.87-5.73,3.79-11.44,5.68-17.17,15.32-46.44,30.64-92.88,45.95-139.32,16.35-49.58,32.7-99.16,49.05-148.75,7.58-22.99,15.2-45.97,22.71-68.98,1.69-5.17,3-10.46,4.49-15.7.26-.9.55-1.79.85-2.75,1.14.32,1.46,1.2,1.97,1.86,5.88,7.75,11.7,15.55,17.63,23.26,37.43,48.66,74.88,97.3,112.33,145.95.65.85,1.34,1.67,2.02,2.49,2.66,3.23,5.42,6.38,7.97,9.69,16.54,21.4,33.04,42.83,49.55,64.26,1.66,2.16,3.31,4.33,4.98,6.48.34.44.76.81,1.3,1.39,1.2-1.56,1.81-3.2,2.64-4.69.8-1.44,1.53-2.93,2.29-4.4.81-1.55,1.62-3.1,2.43-4.66.76-1.47,1.53-2.93,2.29-4.4.81-1.55,1.62-3.1,2.43-4.66.76-1.47,1.53-2.93,2.29-4.4.81-1.55,1.61-3.11,2.42-4.66.76-1.44,1.43-2.93,2.53-4.6.35.64.54.93.68,1.24,8.89,19.99,17.75,39.99,26.67,59.97,11.45,25.66,22.94,51.31,34.41,76.97.44.98.82,1.99,1.34,2.91.74,1.32.72,2.54,0,3.86-.98,1.79-1.85,3.64-2.77,5.47-3.76,7.47-7.52,14.94-11.28,22.41-.17.35-.37.69-.51,1.05-.49,1.24-1.4,1.81-2.72,1.77-.78-.02-1.56,0-2.34,0-38.53,0-77.06,0-115.6.02-4.83,0-4.43.01-6.83-3.61-19.91-29.99-40.55-59.48-60.99-89.1-9.61-13.93-19.16-27.91-28.75-41.86-.76-1.11-1.37-2.34-2.54-3.33-.77.47-.83,1.29-1.05,1.96-2.57,7.85-5.11,15.72-7.68,23.57-12.02,36.88-24.04,73.76-36.06,110.65-.27.83-.48,1.68-.72,2.52H.5v-.58h0Z"/>
        <path class="cls-1" d="m575.24,576.25c-44.49.76-88.56.62-132.42,1.16-1.24-.75-1.39-1.89-1.8-2.85-4.86-11.46-9.54-23-14.57-34.38-20.35-46.09-40.81-92.12-61.21-138.19-23.15-52.29-46.33-104.57-69.4-156.89-10.36-23.49-20.64-47.02-31.41-70.33-.61-1.32-1.24-2.62-2-4.21-.43.68-.78,1.1-.98,1.57-2.96,7.2-5.46,14.57-7.54,22.07-.44,1.58-.93,3.15-1.38,4.67-1.05.2-1.24-.61-1.61-1.11-4.73-6.55-9.44-13.11-14.15-19.66-21.81-30.34-43.63-60.67-65.44-91.01-.79-1.1-1.57-2.21-2.36-3.33.37-1.12.66-2.15,1.03-3.14,4.85-13.24,9.78-26.45,14.53-39.72,2.69-7.5,5.06-15.12,7.63-22.67.53-1.55,1.19-3.09,2.04-4.49,1.35-2.22,3.33-3.25,6.08-3.25,10.22.02,20.43-.19,30.65-.26,19.95-.13,39.9-.21,59.85-.34,9.54-.06,19.07-.1,28.61-.3,3.1-.06,5.25,1.08,6.61,3.8.52,1.04,1.03,2.1,1.5,3.16,25.1,56.75,50.17,113.51,75.28,170.25,17.4,39.31,34.86,78.59,52.27,117.9,27.06,61.09,54.1,122.19,81.13,183.29,8.1,18.32,16.07,36.7,24.22,55.01,3.48,7.82,7.27,15.49,10.89,23.25,1.19,2.55,2.3,5.15,3.4,7.75.25.59.32,1.27.55,2.24h0Z"/>
      </g>
    </g>
  </g>
</svg>