<?xml version="1.0" encoding="UTF-8"?>
<svg id="Camada_2" data-name="Camada 2" xmlns="http://www.w3.org/2000/svg" viewBox="0 0 1726.38 713.18">
  <defs>
    <style>
      .cls-1 {
        font-size: 412px;
      }

      .cls-1, .cls-2 {
        fill: #fff;
        font-family: LEMONMILK-Medium, 'LEMON MILK';
        font-weight: 500;
      }

      .cls-3 {
        fill: #f60;
      }

      .cls-2 {
        font-size: 254px;
      }

      .cls-4 {
        letter-spacing: -.02em;
      }

      .cls-5 {
        letter-spacing: -.28em;
      }

      .cls-6 {
        letter-spacing: -.01em;
      }
    </style>
  </defs>
  <g id="Camada_1-2" data-name="Camada 1">
    <g>
      <text class="cls-2" transform="translate(697.63 226.96)"><tspan class="cls-6" x="0" y="0">B</tspan><tspan class="cls-4" x="156.77" y="0">A</tspan><tspan x="348.13" y="0">SKET</tspan></text>
      <text class="cls-1" transform="translate(668.85 599.11)"><tspan class="cls-5" x="0" y="0" xml:space="preserve">			</tspan><tspan class="cls-6" x="18.48" y="0">B</tspan><tspan x="272.76" y="0">ALL</tspan></text>
    </g>
    <g>
      <path class="cls-3" d="m668.6,598.55c-.86.1-1.72.3-2.57.3-20.34.04-40.68.06-61.01.09-3.79,0-7.59.07-11.38.1-.97,0-1.94,0-2.75,0-1.11-.8-1.3-1.9-1.71-2.87-6.82-15.91-13.63-31.82-20.44-47.74-5.09-11.89-10.17-23.78-15.28-35.66-.92-2.14-1.92-4.25-2.99-6.33-1.46-2.82-2.14-5.74-2.09-8.97.17-11.48.21-22.96.19-34.44-.05-30.36-.18-60.72-.26-91.08-.05-20.82-.07-41.65-.13-62.47,0-2.04-.19-4.08-.37-6.11-.04-.4-.37-.93-.72-1.12-.47-.27-.94.12-1.19.55-.99,1.67-2.02,3.33-2.89,5.06-4.8,9.56-9.55,19.15-14.32,28.72-6.41,12.89-12.83,25.77-19.23,38.66-2.29,4.62-4.53,9.26-6.81,13.88-.42.85-.91,1.65-1.43,2.59-.94-.63-1.1-1.53-1.43-2.29-4.86-11.25-9.71-22.5-14.56-33.75-15.49-35.89-30.96-71.79-46.51-107.66-.88-2.02-.67-3.6.29-5.48,12.82-25.01,25.59-50.05,38.35-75.1,15.85-31.11,31.68-62.23,47.54-93.33,6.27-12.3,12.61-24.57,18.9-36.87,1.19-2.34,2.35-4.7,3.38-7.11,1.05-2.46,2.41-4.64,4.66-6.16h111.53c2.3,1.56,3.56,3.86,4.55,6.35.24.6.47,1.21.7,1.82v566.41Z"/>
      <path class="cls-3" d="m0,599.13c1.12-.27,1.42-1.17,1.74-2.13,1.87-5.73,3.79-11.44,5.68-17.17,15.32-46.44,30.64-92.88,45.95-139.32,16.35-49.58,32.7-99.16,49.05-148.75,7.58-22.99,15.2-45.97,22.71-68.98,1.69-5.17,3-10.46,4.49-15.7.26-.9.55-1.79.85-2.75,1.14.32,1.46,1.2,1.97,1.86,5.88,7.75,11.7,15.55,17.63,23.26,37.43,48.66,74.88,97.3,112.33,145.95.65.85,1.34,1.67,2.02,2.49,2.66,3.23,5.42,6.38,7.97,9.69,16.54,21.4,33.04,42.83,49.55,64.26,1.66,2.16,3.31,4.33,4.98,6.48.34.44.76.81,1.3,1.39,1.2-1.56,1.81-3.2,2.64-4.69.8-1.44,1.53-2.93,2.29-4.4.81-1.55,1.62-3.1,2.43-4.66.76-1.47,1.53-2.93,2.29-4.4.81-1.55,1.62-3.1,2.43-4.66.76-1.47,1.53-2.93,2.29-4.4.81-1.55,1.61-3.11,2.42-4.66.76-1.44,1.43-2.93,2.53-4.6.35.64.54.93.68,1.24,8.89,19.99,17.75,39.99,26.67,59.97,11.45,25.66,22.94,51.31,34.41,76.97.44.98.82,1.99,1.34,2.91.74,1.32.72,2.54,0,3.86-.98,1.79-1.85,3.64-2.77,5.47-3.76,7.47-7.52,14.94-11.28,22.41-.17.35-.37.69-.51,1.05-.49,1.24-1.4,1.81-2.72,1.77-.78-.02-1.56,0-2.34,0-38.53,0-77.06,0-115.6.02-4.83,0-4.43.01-6.83-3.61-19.91-29.99-40.55-59.48-60.99-89.1-9.61-13.93-19.16-27.91-28.75-41.86-.76-1.11-1.37-2.34-2.54-3.33-.77.47-.83,1.29-1.05,1.96-2.57,7.85-5.11,15.72-7.68,23.57-12.02,36.88-24.04,73.76-36.06,110.65-.27.83-.48,1.68-.72,2.52-43.6,0-87.2,0-130.8,0v-.58Z"/>
      <path class="cls-3" d="m574.74,597.82c-44.49.76-88.56.62-132.42,1.16-1.24-.75-1.39-1.89-1.8-2.85-4.86-11.46-9.54-23-14.57-34.38-20.35-46.09-40.81-92.12-61.21-138.19-23.15-52.29-46.33-104.57-69.4-156.89-10.36-23.49-20.64-47.02-31.41-70.33-.61-1.32-1.24-2.62-2-4.21-.43.68-.78,1.1-.98,1.57-2.96,7.2-5.46,14.57-7.54,22.07-.44,1.58-.93,3.15-1.38,4.67-1.05.2-1.24-.61-1.61-1.11-4.73-6.55-9.44-13.11-14.15-19.66-21.81-30.34-43.63-60.67-65.44-91.01-.79-1.1-1.57-2.21-2.36-3.33.37-1.12.66-2.15,1.03-3.14,4.85-13.24,9.78-26.45,14.53-39.72,2.69-7.5,5.06-15.12,7.63-22.67.53-1.55,1.19-3.09,2.04-4.49,1.35-2.22,3.33-3.25,6.08-3.25,10.22.02,20.43-.19,30.65-.26,19.95-.13,39.9-.21,59.85-.34,9.54-.06,19.07-.1,28.61-.3,3.1-.06,5.25,1.08,6.61,3.8.52,1.04,1.03,2.1,1.5,3.16,25.1,56.75,50.17,113.51,75.28,170.25,17.4,39.31,34.86,78.59,52.27,117.9,27.06,61.09,54.1,122.19,81.13,183.29,8.1,18.32,16.07,36.7,24.22,55.01,3.48,7.82,7.27,15.49,10.89,23.25,1.19,2.55,2.3,5.15,3.4,7.75.25.59.32,1.27.55,2.24Z"/>
    </g>
  </g>
</svg>