<?xml version="1.0" encoding="UTF-8"?>
<svg id="Camada_2" data-name="Camada 2" xmlns="http://www.w3.org/2000/svg" viewBox="0 0 350 350">
  <defs>
    <style>
      .cls-1 {
        fill: #f60;
      }
    </style>
  </defs>
  <g id="Camada_2-2" data-name="Camada 2">
    <circle cx="175" cy="175" r="175"/>
    <g id="Camada_2-2" data-name="Camada 2-2">
      <g id="Camada_1-2" data-name="Camada 1-2">
        <g>
          <path class="cls-1" d="m276.89,262.33c-.29.03-.57.1-.86.1-6.78.01-13.56.02-20.33.03-1.26,0-2.53.02-3.79.03h-.92c-.37-.26-.43-.63-.57-.95-2.27-5.24-4.54-10.48-6.81-15.73-1.7-3.92-3.39-7.84-5.09-11.75-.31-.71-.64-1.4-1-2.09-.49-.93-.71-1.89-.7-2.96.06-3.78.07-7.56.06-11.35-.02-10-.06-20-.09-30.01-.02-6.86-.02-13.72-.04-20.58,0-.67-.06-1.34-.12-2.01-.01-.13-.12-.31-.24-.37-.16-.09-.31.04-.4.18-.33.55-.67,1.1-.96,1.67-1.6,3.15-3.18,6.31-4.77,9.46-2.14,4.25-4.28,8.49-6.41,12.73-.76,1.52-1.51,3.05-2.27,4.57-.14.28-.3.54-.48.85-.31-.21-.37-.5-.48-.75-1.62-3.71-3.24-7.41-4.85-11.12-5.16-11.82-10.32-23.65-15.5-35.47-.29-.67-.22-1.19.1-1.81,4.27-8.24,8.53-16.49,12.78-24.74,5.28-10.25,10.56-20.5,15.84-30.75,2.09-4.05,4.2-8.1,6.3-12.14.4-.77.78-1.55,1.13-2.34.35-.81.8-1.53,1.55-2.03h37.17c.77.51,1.19,1.27,1.52,2.09.08.2.16.4.23.6v186.6h0,0Z"/>
          <path class="cls-1" d="m54.24,262.3c.37-.09.47-.39.58-.7.62-1.89,1.26-3.77,1.89-5.66,5.11-15.3,10.21-30.6,15.32-45.9,5.45-16.34,10.9-32.67,16.35-49.01,2.53-7.57,5.07-15.15,7.57-22.73.56-1.7,1-3.45,1.5-5.17.09-.3.18-.59.28-.91.38.11.49.4.66.61,1.96,2.55,3.9,5.12,5.88,7.66,12.48,16.03,24.96,32.06,37.44,48.09.22.28.45.55.67.82.89,1.06,1.81,2.1,2.66,3.19,5.51,7.05,11.01,14.11,16.52,21.17.55.71,1.1,1.43,1.66,2.14.11.14.25.27.43.46.4-.51.6-1.05.88-1.55.27-.47.51-.97.76-1.45.27-.51.54-1.02.81-1.54.25-.48.51-.97.76-1.45.27-.51.54-1.02.81-1.54.25-.48.51-.97.76-1.45.27-.51.54-1.02.81-1.54.25-.47.48-.97.84-1.52.12.21.18.31.23.41,2.96,6.59,5.92,13.18,8.89,19.76,3.82,8.45,7.65,16.91,11.47,25.36.15.32.27.66.45.96.25.43.24.84,0,1.27-.33.59-.62,1.2-.92,1.8-1.25,2.46-2.51,4.92-3.76,7.38-.06.12-.12.23-.17.35-.16.41-.47.6-.91.58-.26,0-.52,0-.78,0-12.84,0-25.69,0-38.53,0-1.61,0-1.48,0-2.28-1.19-6.64-9.88-13.52-19.6-20.33-29.36-3.2-4.59-6.39-9.2-9.58-13.79-.25-.37-.46-.77-.85-1.1-.26.15-.28.43-.35.65-.86,2.59-1.7,5.18-2.56,7.77-4.01,12.15-8.01,24.3-12.02,36.46-.09.27-.16.55-.24.83h-43.6v-.19h0Z"/>
          <path class="cls-1" d="m245.56,262.02c-14.83.25-29.52.2-44.14.38-.41-.25-.46-.62-.6-.94-1.62-3.78-3.18-7.58-4.86-11.33-6.78-15.19-13.6-30.35-20.4-45.53-7.72-17.23-15.44-34.45-23.13-51.69-3.45-7.74-6.88-15.49-10.47-23.17-.2-.43-.41-.86-.67-1.39-.14.22-.26.36-.33.52-.99,2.37-1.82,4.8-2.51,7.27-.15.52-.31,1.04-.46,1.54-.35.07-.41-.2-.54-.37-1.58-2.16-3.15-4.32-4.72-6.48-7.27-10-14.54-19.99-21.81-29.99-.26-.36-.52-.73-.79-1.1.12-.37.22-.71.34-1.03,1.62-4.36,3.26-8.71,4.84-13.09.9-2.47,1.69-4.98,2.54-7.47.18-.51.4-1.02.68-1.48.45-.73,1.11-1.07,2.03-1.07,3.41,0,6.81-.06,10.22-.09,6.65-.04,13.3-.07,19.95-.11,3.18-.02,6.36-.03,9.54-.1,1.03-.02,1.75.36,2.2,1.25.17.34.34.69.5,1.04,8.37,18.7,16.72,37.4,25.09,56.09,5.8,12.95,11.62,25.89,17.42,38.85,9.02,20.13,18.03,40.26,27.04,60.39,2.7,6.04,5.36,12.09,8.07,18.13,1.16,2.58,2.42,5.1,3.63,7.66.4.84.77,1.7,1.13,2.55.08.19.11.42.18.74h0Z"/>
        </g>
      </g>
    </g>
  </g>
</svg>