<?xml version="1.0" encoding="UTF-8"?>
<svg id="Camada_2" data-name="Camada 2" xmlns="http://www.w3.org/2000/svg" xmlns:xlink="http://www.w3.org/1999/xlink" viewBox="0 0 637.94 628.16">
  <defs>
    <style>
      .cls-1 {
        fill: #239ae3;
      }

      .cls-2 {
        stroke: #e20613;
        stroke-width: .03px;
      }

      .cls-2, .cls-3, .cls-4, .cls-5, .cls-6, .cls-7 {
        fill: none;
      }

      .cls-2, .cls-7 {
        stroke-miterlimit: 10;
      }

      .cls-8 {
        fill: #fff;
      }

      .cls-9 {
        fill: #ffd557;
      }

      .cls-10 {
        fill: #5218b3;
      }

      .cls-11 {
        fill: #f5f5f5;
      }

      .cls-12 {
        clip-path: url(#clippath-2);
      }

      .cls-13 {
        fill: #f97d7a;
      }

      .cls-14 {
        fill: #ef4aff;
      }

      .cls-15 {
        fill: #843dff;
      }

      .cls-16 {
        clip-path: url(#clippath-1);
      }

      .cls-17 {
        clip-path: url(#clippath-4);
      }

      .cls-18 {
        opacity: .3;
      }

      .cls-3 {
        stroke: #2a2f6f;
      }

      .cls-3, .cls-4, .cls-5 {
        stroke-linejoin: round;
      }

      .cls-3, .cls-5, .cls-7 {
        stroke-width: 1.76px;
      }

      .cls-19 {
        fill: #e20613;
      }

      .cls-4 {
        stroke: #ec6d8a;
        stroke-width: 2.26px;
      }

      .cls-5, .cls-7 {
        stroke: #fff;
      }

      .cls-20 {
        fill: #2effcd;
      }

      .cls-21 {
        clip-path: url(#clippath);
      }

      .cls-22 {
        fill: #632ebf;
      }

      .cls-23 {
        clip-path: url(#clippath-3);
      }

      .cls-24 {
        fill: #b58aff;
      }

      .cls-25 {
        fill: #377bbe;
      }

      .cls-26 {
        clip-path: url(#clippath-5);
      }

      .cls-27 {
        opacity: .29;
      }
    </style>
    <clipPath id="clippath">
      <rect class="cls-6" width="637.94" height="628.16"/>
    </clipPath>
    <clipPath id="clippath-1">
      <rect class="cls-6" width="637.94" height="628.16"/>
    </clipPath>
    <clipPath id="clippath-2">
      <path class="cls-6" d="m251.28,124.8c-46.08,23.78-84.32,93.79-85.01,155.51-.68,61.01,35.69,90.05,80.83,65.71,44.71-24.11,81.94-91.99,83.54-152.45,1.25-47.28-19.6-76.64-50.21-76.64-8.98,0-18.8,2.53-29.15,7.87"/>
    </clipPath>
    <clipPath id="clippath-3">
      <rect class="cls-6" width="637.94" height="628.16"/>
    </clipPath>
    <clipPath id="clippath-4">
      <rect class="cls-6" x="559.3" y="155.23" width="48.75" height="51.96"/>
    </clipPath>
    <clipPath id="clippath-5">
      <rect class="cls-6" x="522.7" y="205.39" width="45.22" height="24.63"/>
    </clipPath>
  </defs>
  <g id="Camada_1-2" data-name="Camada 1">
    <g class="cls-21">
      <g id="Grupo_382" data-name="Grupo 382">
        <g id="Grupo_371" data-name="Grupo 371">
          <g class="cls-16">
            <g id="Grupo_370" data-name="Grupo 370">
              <path id="Caminho_191" data-name="Caminho 191" class="cls-20" d="m526.99,433.93c13.48,78.4-93.31,162.2-238.52,187.17S14.63,602.74,1.15,524.33c-13.48-78.4,93.31-162.2,238.52-187.17,145.21-24.97,273.85,18.36,287.33,96.77"/>
              <path id="Caminho_192" data-name="Caminho 192" class="cls-24" d="m498.77,532.81c2.77,16.1-17.45,33.01-45.16,37.77s-52.42-4.42-55.18-20.52,17.45-33.01,45.16-37.77,52.41,4.42,55.18,20.52"/>
              <path id="Caminho_193" data-name="Caminho 193" class="cls-5" d="m227.88,307.67l36.68,19.47c1.22.65,1.69,2.17,1.04,3.39-.23.44-.59.8-1.02,1.03l-31.07,16.81c-2.25,1.22-4.97,1.17-7.19-.11l-32.69-19.03c-1.2-.7-1.6-2.23-.9-3.43.23-.4.57-.72.97-.94l31.81-17.17c.74-.4,1.63-.4,2.37-.01Z"/>
              <path id="Caminho_194" data-name="Caminho 194" class="cls-7" d="m456.1,9.07v-1.64c-.45-3.68-3.52-5.09-7.31-3.24l-.58.31L74.4,206.04l-1.54.83c-3.87,2.41-6.92,7.34-7.11,11.56v225.01c.37,3.8,3.46,5.29,7.29,3.44l.64-.35"/>
              <path id="Caminho_195" data-name="Caminho 195" class="cls-24" d="m454,3.93v-.03s-.17-.08-.17-.08c-.09-.04-.18-.09-.27-.12l-7.41-3.34c-1.62-.58-3.42-.42-4.91.45l-.58.31L66.85,202.66l-1.54.83c-3.87,2.41-6.92,7.34-7.11,11.56v225.01c.06,1.23.58,2.39,1.46,3.25.21.18.44.34.69.48h0s.25.12.25.12c.09.04.18.09.27.12l7.2,3.23s.07.03.11.05l.22.1v-.03c1.55.49,3.24.31,4.66-.49l.64-.35,373.63-201.44,1.93-1.04c3.78-2.56,6.27-6.62,6.85-11.15V7.44c-.09-1.44-.87-2.75-2.1-3.51"/>
              <path id="Caminho_196" data-name="Caminho 196" class="cls-10" d="m246.76,589.99v14.98l391.18-210.64v-14.98l-391.18,210.64Z"/>
              <path id="Caminho_197" data-name="Caminho 197" class="cls-24" d="m66.21,484.67v14.98l180.54,105.32v-14.97l-180.54-105.32Z"/>
              <path id="Caminho_198" data-name="Caminho 198" class="cls-15" d="m66.21,484.67l180.54,105.32,391.18-210.64-127.89-67.7-67.7,36.18-240.73,61.61-135.41,75.23Z"/>
              <path id="Caminho_199" data-name="Caminho 199" class="cls-7" d="m65.74,484.28l181.08,105.7,390.36-210.45"/>
              <path id="Caminho_200" data-name="Caminho 200" class="cls-7" d="m65.74,484.28l181.08,105.7,390.36-210.45"/>
              <path id="Caminho_201" data-name="Caminho 201" class="cls-15" d="m66.21,484.67l180.54,105.32,391.18-210.64-127.89-67.7-67.7,36.18-240.73,61.61-135.41,75.23Z"/>
              <path id="Caminho_202" data-name="Caminho 202" class="cls-22" d="m317.58,536.98v-75.19l-10.64,5.72v75.19l10.64-5.72Z"/>
              <path id="Caminho_203" data-name="Caminho 203" class="cls-22" d="m296.3,536.98v-75.19l10.64,5.72v75.19l-10.64-5.72Z"/>
              <path id="Caminho_204" data-name="Caminho 204" class="cls-22" d="m222.83,418.42l-10.64-5.72v75.19l10.64,5.72,10.64-5.72v-75.2l-10.64,5.73Z"/>
              <path id="Caminho_205" data-name="Caminho 205" class="cls-22" d="m434.02,317.76l-10.64-5.72v75.19l10.64,5.72,10.64-5.72v-75.19l-10.64,5.72Z"/>
              <path id="Caminho_206" data-name="Caminho 206" class="cls-22" d="m412.74,339.82l-10.64-5.72v75.19l10.64,5.72,10.64-5.72v-75.19l-10.64,5.72Z"/>
              <rect id="Retângulo_266" data-name="Retângulo 266" class="cls-2" x="257.16" y="107.52" width="7.52" height="7.52"/>
              <rect id="Retângulo_267" data-name="Retângulo 267" class="cls-2" x="257.16" y="115.04" width="7.52" height="7.52"/>
              <rect id="Retângulo_268" data-name="Retângulo 268" class="cls-2" x="257.16" y="336.03" width="7.52" height="7.52"/>
              <path id="Caminho_207" data-name="Caminho 207" class="cls-14" d="m73.46,206.48c-.21.11-.4.27-.61.39l1.54-.83c-.32.13-.63.28-.93.44"/>
              <path id="Caminho_208" data-name="Caminho 208" class="cls-14" d="m65.71,218.86c0,.27.01.53.04.78v-1.2c0,.14-.04.29-.04.42"/>
              <path id="Caminho_209" data-name="Caminho 209" class="cls-14" d="m448.4,4.38c-.07.03-.13.09-.19.12l.58-.31c-.13.06-.25.12-.38.19"/>
              <path id="Caminho_210" data-name="Caminho 210" class="cls-14" d="m456.16,8.39c0-.32-.02-.64-.06-.96v1.64c.02-.23.06-.46.06-.68"/>
              <path id="Caminho_211" data-name="Caminho 211" class="cls-14" d="m456.1,231.27v1.64c.02-.23.06-.46.06-.68,0-.32-.02-.64-.06-.96"/>
              <path id="Caminho_212" data-name="Caminho 212" class="cls-14" d="m448.4,244.61c.29-.16.56-.36.85-.55l-1.93,1.04c.37-.14.74-.31,1.09-.5"/>
              <path id="Caminho_213" data-name="Caminho 213" class="cls-14" d="m73.46,446.68c.07-.04.14-.1.21-.14l-.64.35c.14-.07.28-.13.43-.21"/>
              <path id="Caminho_214" data-name="Caminho 214" class="cls-14" d="m65.71,442.67c0,.27.01.53.04.78v-1.2c0,.14-.04.29-.04.42"/>
              <path id="Caminho_215" data-name="Caminho 215" class="cls-22" d="m500.33,349.06c-.05-.58-.32-1.12-.74-1.52-.66-.63-1.45-1.11-2.31-1.4l-100.85-61.06c-.65-.61-1.42-1.08-2.26-1.37-1.44-.52-2.96-.77-4.49-.76-1.56-.02-3.12.26-4.59.8-.62.23-1.21.54-1.74.94l-184.04,99.34-1.77.95c-.69.45-1.13,1.19-1.19,2.01v14.99c.04.67.36,1.3.88,1.73l2.03,1.22,101.3,60.76,2,1.2c2.99,1.09,6.27,1.09,9.26,0l1.67-.9,183.77-98.84c.69-.24,1.33-.59,1.91-1.03.67-.45,1.1-1.18,1.16-1.99v-15.08h-.01Z"/>
              <path id="Caminho_216" data-name="Caminho 216" class="cls-15" d="m499.58,347.54c-.66-.63-1.45-1.11-2.31-1.4l-100.85-61.06c-.65-.61-1.42-1.08-2.26-1.37-2.94-1.02-6.14-1.01-9.08.04-.62.23-1.21.54-1.74.94l-184.04,99.34-1.77.95c-.69.45-1.13,1.19-1.19,2.01.04.67.36,1.3.88,1.73l2.03,1.22,101.3,60.76,1.99,1.2c2.99,1.09,6.27,1.09,9.26,0l1.67-.9,183.77-98.84c.69-.24,1.33-.59,1.91-1.03.67-.45,1.1-1.18,1.16-1.99-.03-.62-.3-1.19-.75-1.61"/>
              <path id="Caminho_217" data-name="Caminho 217" class="cls-7" d="m497.27,352.16l-183.77,98.84-1.67.9c-2.99,1.09-6.27,1.09-9.26,0l-1.99-1.2-101.3-60.76-2.03-1.22c-.52-.43-.84-1.06-.88-1.73.06-.82.5-1.56,1.19-2.01l1.77-.95,185.78-100.28"/>
              <path id="Caminho_218" data-name="Caminho 218" class="cls-7" d="m497.27,352.16l-183.77,98.84-1.67.9c-2.99,1.09-6.27,1.09-9.26,0l-1.99-1.2-101.3-60.76-2.03-1.22c-.52-.43-.84-1.06-.88-1.73.06-.82.5-1.56,1.19-2.01l1.77-.95,185.78-100.28"/>
              <line id="Linha_3" data-name="Linha 3" class="cls-7" x1="306.94" y1="463.67" x2="306.94" y2="542.7"/>
              <rect id="Retângulo_269" data-name="Retângulo 269" class="cls-19" x="66.21" y="348.41" width="15.05" height="15.05"/>
              <rect id="Retângulo_270" data-name="Retângulo 270" class="cls-19" x="441.03" y="160.13" width="15.05" height="15.05"/>
              <path id="Caminho_219" data-name="Caminho 219" class="cls-22" d="m448.79,4.19l-.58.31L74.4,206.04l-1.54.83c-3.87,2.41-6.92,7.34-7.11,11.56v225.01c.37,3.8,3.46,5.29,7.29,3.44l.64-.35,373.64-201.44,1.93-1.04c3.78-2.56,6.27-6.62,6.85-11.15V7.44c-.45-3.68-3.52-5.09-7.31-3.24"/>
              <path id="Caminho_220" data-name="Caminho 220" class="cls-7" d="m456.1,9.07v-1.64c-.45-3.68-3.52-5.09-7.31-3.24l-.58.31L74.4,206.04l-1.54.83c-3.87,2.41-6.92,7.34-7.11,11.56v225.01c.37,3.8,3.46,5.29,7.29,3.44l.64-.35"/>
              <path id="Caminho_221" data-name="Caminho 221" class="cls-20" d="m115.68,245.83l-7.78,1.3c-.71,3.69-2.27,7.17-4.56,10.15l3.99,7.14c4.19-5.46,7.05-11.82,8.35-18.58"/>
              <path id="Caminho_222" data-name="Caminho 222" class="cls-20" d="m98.6,235.81l.05-10.75c-7.72,4-14.33,13.91-16.86,24.28l7.62-.3c1.38-5.65,4.98-11.05,9.19-13.23"/>
              <path id="Caminho_223" data-name="Caminho 223" class="cls-20" d="m108.24,243.63c-.01,1.17-.13,2.35-.35,3.5l7.78-1.3c.4-2.11.62-4.26.64-6.41.03-4.73-1-8.59-2.79-11.35l-6.81,9.37c1.1,1.87,1.63,4.02,1.53,6.19"/>
              <path id="Caminho_224" data-name="Caminho 224" class="cls-13" d="m108.17,233.2l6.82-9.36c-3.13-4.83-8.61-6.28-14.88-3.03l-.05,10.76c3.42-1.77,6.41-.99,8.12,1.64"/>
              <path id="Caminho_225" data-name="Caminho 225" class="cls-20" d="m98.47,261.53c-2.38,1.24-4.55,1.25-6.23.25l-5.24,10.91c3.08,1.81,7.07,1.79,11.42-.48,3.48-1.94,6.51-4.6,8.9-7.79l-3.99-7.14c-1.3,1.74-2.96,3.19-4.86,4.25"/>
              <path id="Caminho_226" data-name="Caminho 226" class="cls-20" d="m88.81,253.75c.01-1.59.22-3.17.6-4.71l-7.62.3c-.7,2.83-1.07,5.73-1.1,8.64-.02,7.25,2.44,12.43,6.32,14.71l5.24-10.91c-2.11-1.25-3.45-4.08-3.44-8.03"/>
              <path id="Caminho_227" data-name="Caminho 227" class="cls-24" d="m91.29,298.08l48.52-25.49c1.47-.98,2.37-2.62,2.4-4.39.01-1.74-1.03-2.59-2.35-1.9l-48.55,25.47c-1.48.98-2.38,2.63-2.41,4.41,0,1.74,1.06,2.59,2.38,1.9"/>
              <path id="Caminho_228" data-name="Caminho 228" class="cls-24" d="m91.25,309l48.47-25.52c1.47-.98,2.37-2.62,2.4-4.39.01-1.73-1.03-2.58-2.34-1.89l-48.5,25.51c-1.48.98-2.38,2.63-2.41,4.41,0,1.74,1.06,2.58,2.38,1.89"/>
              <path id="Caminho_229" data-name="Caminho 229" class="cls-24" d="m91.2,319.9l48.42-25.55c1.47-.98,2.36-2.62,2.39-4.38.01-1.73-1.03-2.58-2.34-1.89l-48.44,25.53c-1.48.98-2.37,2.63-2.4,4.4,0,1.73,1.06,2.58,2.38,1.88"/>
              <path id="Caminho_230" data-name="Caminho 230" class="cls-13" d="m108.35,289.12l31.46-16.53c1.47-.98,2.37-2.62,2.4-4.39.01-1.74-1.03-2.59-2.35-1.9l-31.48,16.52c-1.48.98-2.38,2.63-2.4,4.41-.01,1.74,1.05,2.59,2.37,1.9"/>
              <path id="Caminho_231" data-name="Caminho 231" class="cls-13" d="m96.34,306.32l43.38-22.84c1.47-.98,2.37-2.62,2.4-4.39.01-1.73-1.03-2.58-2.34-1.89l-43.4,22.83c-1.48.98-2.38,2.63-2.41,4.41,0,1.74,1.06,2.58,2.38,1.89"/>
              <path id="Caminho_232" data-name="Caminho 232" class="cls-13" d="m107.25,311.43l32.37-17.08c1.47-.98,2.36-2.62,2.39-4.38.01-1.73-1.03-2.58-2.34-1.89l-32.39,17.07c-1.48.98-2.37,2.63-2.4,4.4-.01,1.73,1.05,2.58,2.37,1.88"/>
              <path id="Caminho_233" data-name="Caminho 233" class="cls-24" d="m94.73,403.32l-6.18,3.32.22-59.07,6.21-3.3-.26,59.05Z"/>
              <path id="Caminho_234" data-name="Caminho 234" class="cls-25" d="m94.73,403.32l-6.18,3.32.18-47.38,6.21-3.3-.21,47.36Z"/>
              <path id="Caminho_235" data-name="Caminho 235" class="cls-24" d="m106.58,396.97l-6.16,3.31.29-59.03,6.2-3.29-.33,59.01Z"/>
              <path id="Caminho_236" data-name="Caminho 236" class="cls-25" d="m106.58,396.97l-6.16,3.31.19-39.25,6.19-3.3-.22,39.24Z"/>
              <path id="Caminho_237" data-name="Caminho 237" class="cls-24" d="m118.4,390.63l-6.15,3.3.36-58.99,6.18-3.28-.39,58.97Z"/>
              <path id="Caminho_238" data-name="Caminho 238" class="cls-25" d="m118.4,390.62l-6.15,3.3.12-19.58,6.16-3.29-.13,19.57Z"/>
              <path id="Caminho_239" data-name="Caminho 239" class="cls-13" d="m141.58,339.13c-.05,5.43-3.43,11.62-7.55,13.82s-7.45-.41-7.41-5.85,3.43-11.64,7.57-13.84,7.44.44,7.4,5.88"/>
              <path id="Caminho_240" data-name="Caminho 240" class="cls-20" d="m141.32,368.57c-.05,5.4-3.42,11.57-7.53,13.77s-7.43-.38-7.39-5.78,3.42-11.59,7.55-13.8,7.42.4,7.37,5.81"/>
              <path id="Caminho_241" data-name="Caminho 241" class="cls-24" d="m144.94,227.56c-.14.93-.48,1.82-.98,2.62-.82,1.23-1.71,1.87-2.63,1.79-.94-.08-1.44-.84-1.48-2.19-.03-1.01,0-2.05.02-3.09.08-1.63.82-3.16,2.04-4.25,1.06-.89,2.24-.8,2.76.19.13.3.24.62.32.94-.01,1.33-.02,2.66-.04,3.99m-1.49-1.21c0-.49.02-.98.01-1.46,0-.75-.45-1.08-1.02-.78-.64.41-1.03,1.11-1.04,1.86-.02.98-.03,1.95-.03,2.92,0,.77.43,1.09,1.01.8.65-.4,1.05-1.11,1.06-1.88.01-.49,0-.98.01-1.46"/>
              <path id="Caminho_242" data-name="Caminho 242" class="cls-24" d="m145.05,215.11c-.15.94-.49,1.85-1.01,2.65-.82,1.22-1.71,1.83-2.62,1.75-.94-.08-1.44-.85-1.47-2.21-.02-.99,0-2.02.02-3.03.07-1.56.73-3.03,1.83-4.12.09-.08.17-.17.26-.26l1-.52c.9-.2,1.8.38,1.99,1.28.03.15.04.3.03.46-.01,1.33-.02,2.67-.04,4m-3.57-.13c0,.48-.01.96-.01,1.43,0,.8.42,1.13,1.02.83.66-.4,1.06-1.11,1.05-1.88.02-.97.03-1.94.03-2.9,0-.79-.44-1.12-1.03-.81-.65.41-1.04,1.13-1.04,1.9,0,.48,0,.96-.01,1.43"/>
              <path id="Caminho_243" data-name="Caminho 243" class="cls-24" d="m138.34,218.63c-.15.95-.49,1.85-1.01,2.65-.82,1.22-1.71,1.83-2.62,1.76-.94-.08-1.44-.85-1.48-2.21-.02-.99,0-2.02.02-3.03.07-1.56.73-3.03,1.84-4.12.09-.08.17-.17.26-.26l1-.52c.91-.19,1.8.38,1.99,1.29.03.15.04.3.03.45-.01,1.33-.02,2.67-.03,4m-3.58-.13c0,.48-.01.96,0,1.43,0,.8.43,1.13,1.02.82.66-.4,1.06-1.11,1.05-1.88.02-.97.03-1.94.02-2.9,0-.79-.44-1.12-1.03-.81-.65.41-1.04,1.13-1.05,1.9,0,.48,0,.96-.01,1.43"/>
              <path id="Caminho_244" data-name="Caminho 244" class="cls-24" d="m130.99,215.63c.39.06.51.43.51.99-.03,2.42-.04,4.82-.06,7.24.04.62-.26,1.21-.77,1.55-.45.23-.76-.05-.75-.69,0-1.55.02-3.11.03-4.66v-.41c-.25.35-.4.72-.6,1.05-.26.43-.57.65-.86.59s-.43-.38-.38-.83c.03-.26.11-.51.24-.73.61-1.12,1.22-2.23,1.83-3.34.09-.17.22-.32.32-.48l.5-.26Z"/>
              <path id="Caminho_245" data-name="Caminho 245" class="cls-24" d="m124.56,248.06c.02-.52-.02-1.11.05-1.76.16-1.74,1.1-3.31,2.55-4.27,1.23-.66,2.39-.06,2.51,1.5.18,1.52.14,3.06-.14,4.57-.53,2.52-2.7,4.45-4.05,3.65-.68-.51-1.04-1.35-.93-2.2,0-.45,0-.91,0-1.47m3.61-1.74h0c0-.5.02-1,0-1.49-.01-.71-.39-1.04-.9-.82-.65.32-1.08.96-1.14,1.68-.06.79-.08,1.58-.06,2.37-.02.34-.01.67.03,1.01.11.67.54.86,1.13.49.56-.41.89-1.05.91-1.74.02-.5,0-1,.01-1.49"/>
              <path id="Caminho_246" data-name="Caminho 246" class="cls-24" d="m133.22,231.84c.02.78-.02,1.56-.13,2.33-.28,1.68-1.35,3.11-2.88,3.86-1.17.41-2.13-.55-2.13-2.15,0-1,0-2.01.02-3.03.05-1.9,1.03-3.65,2.63-4.68,1.38-.71,2.51.21,2.51,2.03,0,.5,0,1-.01,1.63m-1.53.66c0-.5.02-1,0-1.5,0-.75-.46-1.07-1.04-.77-.63.4-1.01,1.09-1.04,1.84-.02,1-.03,2-.02,2.99,0,.74.45,1.05,1.02.75.64-.4,1.04-1.09,1.05-1.85.01-.49,0-.98.01-1.46"/>
              <path id="Caminho_247" data-name="Caminho 247" class="cls-24" d="m124.89,234.7c-.25.43-.43.78-.64,1.1-.46.7-1.07.73-1.2.07-.06-.35.01-.71.19-1.02.62-1.15,1.25-2.3,1.88-3.44.25-.45.55-.7.88-.67.31.03.44.3.43.74-.02,2.52-.03,5.04-.05,7.55,0,.58-.29,1.12-.78,1.45-.42.21-.74-.07-.74-.68,0-1.55.02-3.1.03-4.66v-.43"/>
              <path id="Caminho_248" data-name="Caminho 248" class="cls-24" d="m136.55,228.62c-.17.33-.3.61-.45.88-.38.66-.83.91-1.13.65s-.27-.89.09-1.55c.57-1.05,1.14-2.09,1.71-3.14.26-.49.56-.83.93-.81s.47.36.47.86c-.02,2.44-.04,4.88-.06,7.32.06.68-.32,1.33-.95,1.61-.35.07-.58-.21-.57-.76,0-1.54.02-3.08.04-4.62.02-.14,0-.29-.06-.42"/>
              <path id="Caminho_249" data-name="Caminho 249" class="cls-24" d="m133.21,242.41c-.17.33-.3.61-.45.88-.38.66-.83.91-1.13.65s-.27-.89.09-1.55c.57-1.05,1.14-2.09,1.71-3.14.26-.49.56-.83.93-.81s.47.36.47.85c-.02,2.44-.04,4.87-.06,7.3.06.68-.32,1.33-.95,1.61-.35.08-.58-.21-.57-.76,0-1.54.02-3.08.03-4.61.02-.14,0-.29-.06-.42"/>
              <path id="Caminho_250" data-name="Caminho 250" class="cls-14" d="m330.64,193.57c-1.6,60.46-38.83,128.34-83.54,152.45-45.14,24.34-81.51-4.7-80.83-65.71.69-61.72,38.93-131.73,85.01-155.51,45.63-23.55,80.98,7.62,79.36,68.77"/>
            </g>
          </g>
        </g>
        <g id="Grupo_373" data-name="Grupo 373">
          <g class="cls-12">
            <g id="Grupo_372" data-name="Grupo 372">
              <path id="Caminho_251" data-name="Caminho 251" class="cls-24" d="m292.17,209.72l-29.91,57.07-41.1-43.08-49.39,102.78-.71,61.06c-.03,2.94,1.75,4.35,3.98,3.14l144.26-77.86c2.17-1.17,3.98-4.48,4.06-7.4l1.77-67.77-32.96-27.95Z"/>
              <path id="Caminho_252" data-name="Caminho 252" class="cls-9" d="m273.9,211.69c-.18,8.72-5.56,18.54-12.02,21.95s-11.58-.88-11.41-9.62,5.56-18.61,12.05-22.01,11.57.94,11.38,9.68"/>
            </g>
          </g>
        </g>
        <g id="Grupo_381" data-name="Grupo 381">
          <g class="cls-23">
            <g id="Grupo_380" data-name="Grupo 380">
              <path id="Caminho_254" data-name="Caminho 254" class="cls-24" d="m257.8,173.03l39.37-20.53c3.12-1.63,5.57.5,5.47,4.76s-2.71,9.01-5.83,10.64l-.63.33.22,3.57-3.96-1.61-34.95,18.28c-3.15,1.65-5.63-.47-5.55-4.73s2.7-9.06,5.85-10.7"/>
              <path id="Caminho_255" data-name="Caminho 255" class="cls-8" d="m293.22,162.17c-.03,1.26.7,1.89,1.62,1.4,1.05-.71,1.69-1.88,1.72-3.15.03-1.26-.7-1.89-1.62-1.4-1.05.71-1.69,1.88-1.72,3.15"/>
              <path id="Caminho_256" data-name="Caminho 256" class="cls-8" d="m284.46,166.75c-.03,1.26.7,1.89,1.62,1.4,1.05-.71,1.69-1.88,1.73-3.15.03-1.26-.7-1.89-1.62-1.4-1.05.71-1.69,1.89-1.73,3.15"/>
              <path id="Caminho_257" data-name="Caminho 257" class="cls-8" d="m275.69,171.33c-.03,1.26.7,1.89,1.63,1.4,1.05-.71,1.7-1.88,1.73-3.15.03-1.26-.7-1.89-1.63-1.4-1.05.71-1.7,1.89-1.73,3.16"/>
              <path id="Caminho_258" data-name="Caminho 258" class="cls-8" d="m266.9,175.93c-.03,1.26.71,1.89,1.63,1.4,1.05-.71,1.7-1.89,1.73-3.16.03-1.26-.71-1.89-1.63-1.4-1.05.71-1.7,1.89-1.73,3.16"/>
              <path id="Caminho_259" data-name="Caminho 259" class="cls-8" d="m258.09,180.53c-.02,1.26.71,1.89,1.64,1.4,1.05-.71,1.7-1.89,1.73-3.16.03-1.26-.71-1.89-1.64-1.4-1.06.71-1.7,1.89-1.73,3.16"/>
              <path id="Caminho_260" data-name="Caminho 260" class="cls-8" d="m224.94,183.27l-26.52,13.81c-.47.25-.85-.07-.84-.71.01-.64.34-1.24.87-1.6l26.53-13.81c.47-.25.85.07.83.71-.01.64-.34,1.24-.87,1.6"/>
              <path id="Caminho_261" data-name="Caminho 261" class="cls-8" d="m240.55,182.19l-42.23,22.02c-.47.25-.85-.07-.84-.7.01-.64.34-1.24.87-1.6l42.24-22.02c.47-.24.84.07.83.71-.01.64-.34,1.23-.87,1.59"/>
              <path id="Caminho_262" data-name="Caminho 262" class="cls-8" d="m240.42,189.29l-42.21,22.04c-.47.25-.85-.07-.84-.7.01-.64.34-1.24.87-1.6l42.21-22.04c.47-.24.84.07.83.7-.01.64-.34,1.23-.87,1.59"/>
              <path id="Caminho_263" data-name="Caminho 263" class="cls-8" d="m240.29,196.37l-42.18,22.06c-.47.25-.85-.07-.84-.7.01-.64.34-1.24.87-1.6l42.19-22.05c.47-.25.84.07.83.7-.01.64-.34,1.23-.87,1.59"/>
              <path id="Caminho_264" data-name="Caminho 264" class="cls-24" d="m445.05,37.23l-78.79,40.76c-3.32,1.72-6.12,6.83-6.25,11.41l-.68,23.56c-.13,4.56,2.44,6.86,5.75,5.13l66.03-34.44,5.95,7,.37-10.3,6.15-3.21c3.25-1.69,6.02-6.74,6.19-11.28l.87-23.43c.17-4.56-2.33-6.89-5.59-5.21"/>
              <path id="Caminho_265" data-name="Caminho 265" class="cls-20" d="m371.96,95.02c-.23,7.63-4.89,16.14-10.42,19.02s-9.85-.96-9.63-8.6,4.89-16.19,10.44-19.06,9.84,1.01,9.61,8.65"/>
              <path id="Caminho_266" data-name="Caminho 266" class="cls-13" d="m447.92,115.66l.32-8.61c.12-3.18-1.64-4.78-3.92-3.58l-81.88,42.94c-2.33,1.22-4.29,4.8-4.38,7.99l-.25,8.66,90.11-47.39Z"/>
              <path id="Caminho_267" data-name="Caminho 267" class="cls-8" d="m366.52,151.37c-.05,1.47-.79,2.82-2,3.65-1.06.56-1.89-.17-1.84-1.63.05-1.47.79-2.82,2-3.65,1.06-.56,1.89.17,1.84,1.63"/>
              <path id="Caminho_268" data-name="Caminho 268" class="cls-8" d="m373.85,147.52c-.05,1.46-.79,2.82-2,3.64-1.06.56-1.88-.17-1.84-1.63.05-1.46.79-2.82,2-3.65,1.06-.56,1.88.17,1.84,1.63"/>
              <path id="Caminho_269" data-name="Caminho 269" class="cls-8" d="m381.17,143.68c-.05,1.46-.79,2.82-2,3.64-1.06.56-1.88-.17-1.83-1.63.05-1.46.79-2.82,2-3.64,1.06-.55,1.88.18,1.83,1.63"/>
              <path id="Caminho_270" data-name="Caminho 270" class="cls-13" d="m395.97,195.13l-31.5,16.74.86-28.85,31.58-16.69-.93,28.8Z"/>
              <path id="Caminho_271" data-name="Caminho 271" class="cls-13" d="m395.97,195.13l-15.22-7.7-16.27,24.45,31.5-16.75Z"/>
              <path id="Caminho_272" data-name="Caminho 272" class="cls-13" d="m365.33,183.02l15.32,7.74,16.26-24.43-31.58,16.69Z"/>
              <path id="Caminho_273" data-name="Caminho 273" class="cls-24" d="m406.51,164.81l18.67-9.88c.83-.57,1.33-1.5,1.37-2.5.04-1-.52-1.5-1.24-1.12l-18.68,9.88c-.83.57-1.34,1.5-1.37,2.5-.03,1,.53,1.5,1.25,1.11"/>
              <path id="Caminho_274" data-name="Caminho 274" class="cls-24" d="m406.23,173.21l26.27-13.92c.82-.57,1.33-1.49,1.37-2.49.04-1-.52-1.49-1.24-1.11l-26.28,13.92c-.83.57-1.34,1.5-1.37,2.5-.03,1,.53,1.49,1.25,1.11"/>
              <path id="Caminho_275" data-name="Caminho 275" class="cls-24" d="m432.33,164.07l-26.26,13.93c-.83.57-1.34,1.5-1.37,2.5-.03,1,.53,1.49,1.25,1.11l26.25-13.93c.82-.57,1.33-1.49,1.37-2.49.04-.99-.52-1.49-1.24-1.11"/>
              <path id="Caminho_276" data-name="Caminho 276" class="cls-24" d="m432.03,172.44l-26.24,13.94c-.83.57-1.33,1.5-1.37,2.5-.03.99.53,1.49,1.25,1.1l26.23-13.95c.82-.57,1.33-1.49,1.37-2.49.04-.99-.52-1.49-1.24-1.11"/>
              <path id="Caminho_277" data-name="Caminho 277" class="cls-8" d="m372.47,232.67c-.08,2.77-1.8,5.89-3.83,6.98s-3.61-.28-3.53-3.05,1.8-5.9,3.83-6.99,3.61.28,3.53,3.05"/>
              <path id="Caminho_278" data-name="Caminho 278" class="cls-8" d="m314.8,368.72l31.2-16.78,18.35,11c1.37.83,1.81,2.61.98,3.98-.26.43-.63.79-1.07,1.03l-24.89,13.82c-.91.5-2.01.48-2.9-.05l-21.68-13Z"/>
              <path id="Caminho_279" data-name="Caminho 279" class="cls-8" d="m392.27,224.38c0-.09.02-.18.02-.26s-.02-.15-.02-.24c.02-.82-.41-1.58-1.12-1.99h-.03s-3.66-1.64-3.66-1.64h0s-.05-.04-.09-.05c-.83-.31-1.75-.22-2.5.24-.03.02-.07.02-.1.04s-.06.04-.1.06l-118.25,63.61c-.07.03-.14.05-.21.09s-.14.09-.21.13c-1.95,1.23-3.25,3.28-3.54,5.57,0,.11-.03.21-.03.32s.02.19.03.29v98.33c0,.11-.03.21-.03.32s.02.19.03.29c0,.81.43,1.55,1.13,1.94h0l3.82,1.7h0c.8.28,1.68.19,2.41-.24.05-.02.09-.04.14-.06s.09-.06.14-.09l118.26-63.61c.05-.03.11-.04.16-.07s.1-.07.16-.1c2-1.24,3.32-3.32,3.59-5.66,0-.09.02-.18.02-.26s-.02-.15-.02-.24v-98.43Z"/>
              <path id="Caminho_280" data-name="Caminho 280" class="cls-22" d="m392.26,224.38c0-.09.02-.18.02-.26s-.02-.15-.02-.24c-.12-1.98-1.7-2.76-3.65-1.76-.03.02-.07.02-.1.04s-.06.04-.1.06l-118.24,63.61c-.07.03-.14.05-.21.09s-.14.09-.21.13c-1.95,1.23-3.25,3.28-3.54,5.57,0,.11-.03.21-.03.32s.02.19.03.29v98.33c0,.11-.03.21-.03.32s.02.19.03.29c.15,1.93,1.68,2.68,3.6,1.73.05-.02.09-.04.14-.06s.09-.06.14-.09l118.26-63.62c.05-.03.11-.04.16-.07s.1-.07.16-.1c2-1.24,3.32-3.32,3.59-5.66,0-.09.02-.18.02-.26s-.02-.15-.02-.24v-98.43Z"/>
              <path id="Caminho_281" data-name="Caminho 281" class="cls-10" d="m269.93,289.92l118.58-63.77v98.93l-118.58,63.78v-98.94Z"/>
              <path id="Caminho_282" data-name="Caminho 282" class="cls-8" d="m307.65,409.3l93.53-50.32,22.69,13.6-93.13,50.57-23.09-13.84Z"/>
              <path id="Caminho_283" data-name="Caminho 283" class="cls-14" d="m584.88,365.51c.09.98-.42,1.92-1.29,2.39l-31.07,16.81c-2.25,1.22-4.97,1.18-7.18-.11l-32.69-19.03c-.83-.48-1.31-1.41-1.22-2.36v-35.97c-.08-.98.43-1.91,1.29-2.37l31.81-17.17c.74-.4,1.63-.4,2.37,0l36.68,19.47c.88.46,1.39,1.4,1.31,2.39v35.97Z"/>
              <path id="Caminho_284" data-name="Caminho 284" class="cls-14" d="m546.9,307.67l36.68,19.47c1.22.65,1.69,2.17,1.04,3.39-.23.44-.59.8-1.02,1.03l-31.07,16.81c-2.25,1.22-4.97,1.17-7.19-.11l-32.69-19.03c-1.2-.7-1.6-2.23-.9-3.43.23-.4.57-.72.97-.94l31.81-17.17c.74-.4,1.63-.4,2.37,0"/>
              <path id="Caminho_285" data-name="Caminho 285" class="cls-22" d="m597.16,173.03l36.68,19.47c1.22.65,1.69,2.17,1.04,3.39-.23.44-.59.8-1.02,1.03l-81.34,43.87c-2.25,1.22-4.97,1.18-7.19-.11l-32.69-19.03c-1.2-.7-1.6-2.23-.9-3.43.23-.4.57-.72.97-.94l82.08-44.23c.74-.4,1.63-.4,2.37,0"/>
              <path id="Caminho_286" data-name="Caminho 286" class="cls-15" d="m597.16,164.64l36.68,19.47c1.22.65,1.69,2.17,1.04,3.39-.23.44-.59.8-1.02,1.03l-81.34,43.87c-2.25,1.22-4.97,1.18-7.19-.11l-32.69-19.04c-1.2-.7-1.6-2.23-.9-3.43.23-.4.57-.72.97-.94l82.08-44.23c.74-.4,1.63-.4,2.37,0"/>
              <path id="Caminho_287" data-name="Caminho 287" class="cls-22" d="m511.26,127.63l36.68,19.47c1.22.65,1.69,2.17,1.04,3.39-.23.44-.59.8-1.02,1.03l-30.83,16.49c-2.25,1.22-4.97,1.18-7.19-.11l-32.69-19.04c-1.2-.7-1.6-2.23-.9-3.43.23-.4.57-.72.97-.94l31.57-16.86c.74-.4,1.63-.4,2.37,0"/>
              <path id="Caminho_288" data-name="Caminho 288" class="cls-15" d="m511.26,119.24l36.68,19.47c1.22.65,1.69,2.17,1.04,3.39-.23.44-.59.8-1.02,1.03l-30.83,16.49c-2.25,1.22-4.97,1.18-7.19-.11l-32.69-19.04c-1.2-.7-1.6-2.23-.9-3.43.23-.4.57-.72.97-.94l31.57-16.86c.74-.4,1.63-.4,2.37,0"/>
              <path id="Caminho_289" data-name="Caminho 289" class="cls-14" d="m511.76,121.7l23.59,12.52c.79.42,1.09,1.39.67,2.18-.15.28-.38.51-.66.66l-19.83,10.61c-1.45.78-3.2.76-4.62-.07l-21.02-12.24c-.77-.45-1.03-1.43-.58-2.2.15-.26.37-.47.63-.61l20.3-10.84c.47-.26,1.05-.26,1.52,0"/>
              <path id="Caminho_290" data-name="Caminho 290" class="cls-14" d="m511.76,116.31l23.59,12.52c.79.42,1.09,1.39.67,2.18-.15.28-.38.51-.66.66l-19.83,10.6c-1.45.78-3.2.76-4.62-.07l-21.02-12.24c-.77-.45-1.03-1.43-.58-2.2.15-.26.37-.47.63-.61l20.3-10.84c.47-.26,1.05-.26,1.52,0"/>
              <line id="Linha_4" data-name="Linha 4" class="cls-3" x1="548.15" y1="349.27" x2="548.15" y2="385.61"/>
              <path id="Caminho_291" data-name="Caminho 291" class="cls-1" d="m548.2,339.17s24.54,2.67,24.54-64.02c0,0-24.7,21.39-24.54,64.02"/>
              <path id="Caminho_292" data-name="Caminho 292" class="cls-1" d="m548.18,339.17s-24.54,2.67-24.54-64.02c0,0,24.7,21.39,24.54,64.02"/>
              <path id="Caminho_293" data-name="Caminho 293" class="cls-20" d="m548.24,265.52s18.39,42.62,0,73.6h-.01c-18.39-30.99,0-73.6,0-73.6h.01Z"/>
              <path id="Caminho_294" data-name="Caminho 294" class="cls-10" d="m485.47,56.39c-2.24.54-2.71-2.83-1.87-5.38.86-2.62,2.78-3.89,3.8-2.45.05.05.07.13.05.2-.06.13-.13.1-.2.11-.79.11-1.4.82-1.89,1.95-.07.17-.19.38-.14.51.05.16.21-.02.32-.08,3.68-2,7.38-4.01,11.08-6.03.1-.05.2-.1.29-.16.34-.24.39-.06.33.42-.24,1.79-.02,3.16.91,3.83.66.47,1.73,0,2.36-1.04-.04-.02-.08-.03-.12-.03-1.1.1-1.84-.89-1.9-2.56-.1-1.86.48-3.68,1.63-5.14.97-1.12,2.33-1.12,2.68.04-.22.03-.43.09-.64.16-.68.4-1.2,1.03-1.47,1.78-.07.16-.2.37-.14.51.05.12.2-.04.3-.09,2.08-1.13,4.15-2.26,6.24-3.39.39-.21.77-.43,1.16-.63,1.03-.53,1.83.14,1.88,1.55v.35c-.02,11.66-.04,23.23-.07,34.73.03,1.04-.29,2.07-.89,2.92-.26.38-.61.7-1.02.92-2.18,1.15-4.35,2.3-6.53,3.46-8.94,4.74-17.82,9.45-26.65,14.13-.76.4-1.34.33-1.73-.37-.21-.49-.3-1.03-.26-1.57-.05-5.74-.1-11.5-.16-17.28-.05-5.5-.1-11.02-.15-16.56-.06-1.2.33-2.38,1.09-3.31.2-.25.44-.45.72-.61,2.44-1.33,4.88-2.65,7.33-4,.33-.18.4-.09.33.4-.3,2.11.25,3.74,1.33,3.93.64.12,1.29-.27,2-1.21m6.04,28.49c4.73-2.52,9.48-5.04,14.25-7.57,1.36-.82,2.15-2.34,2.04-3.93.01-7.55.02-15.14.03-22.76,0-1.85-.76-2.5-2.08-1.79-9.57,5.18-19.08,10.33-28.53,15.44-1.34.85-2.11,2.36-2,3.95.06,7.48.14,14.92.18,22.35.01,1.68.85,2.46,2.1,1.79,4.65-2.52,9.32-4.97,14.01-7.47"/>
              <path id="Caminho_295" data-name="Caminho 295" class="cls-10" d="m501.52,57c0-.45,0-.9,0-1.35-.03-.69.3-1.34.87-1.72.58-.34,1.17-.65,1.76-.95.56-.28.89,0,.9.78.02.89.02,1.8,0,2.71.04.72-.32,1.4-.93,1.77-.56.31-1.12.62-1.68.9s-.91-.01-.92-.8c0-.45,0-.9,0-1.35"/>
              <path id="Caminho_296" data-name="Caminho 296" class="cls-10" d="m501.1,74.57c0-.45-.01-.89,0-1.34-.03-.68.31-1.32.89-1.68.58-.32,1.17-.63,1.75-.93.52-.26.86,0,.87.71.02.92.02,1.85,0,2.79.03.65-.28,1.27-.82,1.64-.61.4-1.25.73-1.92,1.01-.48.18-.73-.1-.77-.75v-1.44"/>
              <path id="Caminho_297" data-name="Caminho 297" class="cls-10" d="m501.23,65.59c0-.45,0-.9,0-1.35-.04-.7.3-1.36.89-1.75.58-.33,1.17-.65,1.75-.94.5-.25.85-.01.87.68.03.93.03,1.89,0,2.85.03.7-.33,1.36-.92,1.72-.55.31-1.1.61-1.65.88-.62.31-.93.01-.94-.85v-1.25"/>
              <path id="Caminho_298" data-name="Caminho 298" class="cls-10" d="m481.14,85.22c0,.43.02.85,0,1.28.04.69-.3,1.34-.88,1.71-.56.32-1.12.62-1.68.9-.57.28-.88-.01-.89-.81-.01-.86-.02-1.73-.02-2.6-.04-.69.29-1.34.87-1.71.55-.31,1.1-.6,1.65-.89.58-.3.91-.01.94.79.01.44,0,.88.01,1.33h0"/>
              <path id="Caminho_299" data-name="Caminho 299" class="cls-10" d="m498.83,66.86c0,.43,0,.86,0,1.3.04.68-.27,1.34-.84,1.73-.6.37-1.22.7-1.85,1-.48.23-.8-.09-.81-.79-.02-.9-.02-1.82,0-2.74-.03-.7.31-1.35.91-1.72.57-.32,1.14-.62,1.71-.92.54-.28.86-.01.89.73.01.46,0,.93,0,1.4h0"/>
              <path id="Caminho_300" data-name="Caminho 300" class="cls-10" d="m499.11,58.34c0,.43,0,.87,0,1.3.03.69-.29,1.34-.85,1.74-.61.36-1.21.69-1.82.98-.5.24-.82-.06-.84-.74-.02-.92-.03-1.86-.01-2.8-.02-.68.31-1.33.89-1.71.58-.33,1.17-.65,1.75-.95.53-.27.86.03.88.77.01.46,0,.94,0,1.4"/>
              <path id="Caminho_301" data-name="Caminho 301" class="cls-10" d="m477.75,78.07c0-.44-.01-.88,0-1.33-.04-.64.26-1.26.78-1.63.62-.38,1.24-.71,1.87-1.01.43-.21.75.02.78.61.07,1.03.07,2.07.02,3.11-.01.59-.31,1.13-.8,1.46-.59.33-1.17.65-1.76.94-.53.27-.85-.02-.87-.76-.01-.46,0-.92-.01-1.38"/>
              <path id="Caminho_302" data-name="Caminho 302" class="cls-10" d="m493.18,61.46c0,.47,0,.93,0,1.4.04.62-.23,1.21-.72,1.59-.63.44-1.31.81-2.02,1.1-.44.18-.71-.11-.72-.73-.02-.97-.02-1.95-.01-2.94-.02-.61.28-1.19.79-1.54.63-.36,1.26-.7,1.89-1.02.46-.23.77.06.79.7.01.48,0,.97,0,1.45"/>
              <path id="Caminho_303" data-name="Caminho 303" class="cls-10" d="m492.92,70.04c0,.46.01.92,0,1.39.02.63-.29,1.22-.81,1.57-.61.35-1.23.67-1.84.99-.45.23-.75.05-.8-.54-.08-1.04-.09-2.07-.03-3.11,0-.61.31-1.17.83-1.49.59-.33,1.18-.65,1.78-.95.54-.28.85,0,.87.76.01.46,0,.93,0,1.39h0"/>
              <path id="Caminho_304" data-name="Caminho 304" class="cls-10" d="m498.7,75.84c0,.46.01.92,0,1.39.03.67-.3,1.31-.87,1.66-.58.32-1.16.63-1.74.93-.51.26-.84.06-.86-.65-.03-.95-.04-1.93,0-2.92-.01-.64.32-1.24.87-1.56.58-.32,1.16-.63,1.74-.93.54-.28.86,0,.87.74,0,.44,0,.89,0,1.34h0"/>
              <path id="Caminho_305" data-name="Caminho 305" class="cls-10" d="m486.94,82.08c0,.48.01.95,0,1.43.03.62-.27,1.21-.78,1.57-.61.35-1.22.68-1.83.97-.5.24-.8-.05-.82-.74-.02-.9-.02-1.8-.02-2.7-.04-.67.27-1.32.83-1.7.59-.35,1.17-.66,1.76-.94.57-.27.87.07.87.87v1.23s-.01,0-.02.01"/>
              <path id="Caminho_306" data-name="Caminho 306" class="cls-10" d="m487.03,73.16c0,.46.01.92,0,1.39.02.62-.27,1.22-.78,1.58-.62.36-1.25.69-1.87,1-.47.23-.77-.07-.79-.75-.01-.92-.02-1.84-.02-2.77-.04-.64.25-1.26.78-1.64.6-.37,1.23-.7,1.87-1,.5-.23.78.09.79.8,0,.46,0,.93,0,1.39h0"/>
              <path id="Caminho_307" data-name="Caminho 307" class="cls-10" d="m489.36,80.81c0-.49-.02-.98,0-1.48-.01-.56.25-1.09.69-1.43.62-.43,1.28-.79,1.98-1.07.49-.21.77.09.77.78.01.92.02,1.84.01,2.77.04.65-.28,1.28-.84,1.62-.59.33-1.18.64-1.77.94-.5.25-.82-.01-.83-.7-.01-.47,0-.95,0-1.43"/>
              <path id="Caminho_308" data-name="Caminho 308" class="cls-10" d="m487.28,64.63c0,.48.01.96,0,1.45.03.62-.27,1.22-.79,1.57-.61.35-1.23.68-1.84.99-.47.24-.8-.04-.81-.71-.02-.94-.02-1.88-.02-2.84-.03-.64.28-1.26.82-1.61.6-.34,1.2-.67,1.81-.98.5-.26.81.02.82.73,0,.46,0,.93,0,1.4"/>
              <path id="Caminho_309" data-name="Caminho 309" class="cls-24" d="m533.33,108.15c-.22.72-.64.98-1.2.74-.29-.14-.54-.36-.7-.63-.38-.58-.73-1.18-1.12-1.73-1.22-1.82-2.82-3.34-4.7-4.47-1.5-.96-3.31-1.29-5.05-.92-1.02.26-1.94.82-2.65,1.6-.12.17-.29.31-.49.39-.38.09-.8-.28-1.03-.88-.23-.52-.19-1.11.09-1.6.26-.33.56-.63.88-.9,1.27-1.14,2.94-1.72,4.64-1.62.63.04,1.25.14,1.86.32,1.84.57,3.53,1.56,4.93,2.88,1.63,1.51,3.03,3.24,4.16,5.16.17.29.3.61.38.94v.72Z"/>
              <path id="Caminho_310" data-name="Caminho 310" class="cls-24" d="m524.2,106.02c-1.31-.64-2.88-.48-4.03.43-.18.14-.33.33-.51.46-.51.38-1.25-.31-1.4-1.29-.11-.43-.02-.88.25-1.23,1.05-1.25,2.69-1.86,4.3-1.59,2.28.33,4.45,1.85,6.48,4.62.38.52.73,1.07,1.05,1.63.33.51.43,1.14.29,1.73-.05.4-.41.68-.8.63-.06,0-.12-.02-.18-.04-.36-.15-.66-.42-.83-.77-.25-.41-.5-.83-.77-1.21-.71-1.06-1.62-1.99-2.66-2.73-.36-.27-.76-.48-1.18-.64"/>
              <path id="Caminho_311" data-name="Caminho 311" class="cls-24" d="m524.11,107.72c1.61.8,2.92,2.1,3.72,3.71.62,1.1.37,2.37-.45,2.3-.42-.07-.77-.34-.95-.72-.35-.66-.81-1.27-1.35-1.78-1.16-.99-2.19-1.16-3.07-.43-.25.21-.5.38-.86.18-.41-.27-.7-.69-.79-1.17-.16-.44-.12-.92.11-1.32.22-.3.5-.54.83-.7.87-.45,1.91-.47,2.8-.06"/>
              <path id="Caminho_312" data-name="Caminho 312" class="cls-24" d="m524.07,112.67c1.1.69,1.75,1.92,1.72,3.22.01,1.44-.78,2.07-1.71,1.6-1.06-.71-1.69-1.91-1.65-3.19,0-1.36.7-2,1.65-1.63"/>
              <path id="Caminho_313" data-name="Caminho 313" class="cls-13" d="m107.14,493.54l41.42-22.3,45.72,26.67-41.74,22.22-45.4-26.59Z"/>
              <path id="Caminho_314" data-name="Caminho 314" class="cls-13" d="m107.14,463.2l41.42-22.3,45.72,26.67-41.74,22.22-45.4-26.59Z"/>
              <path id="Caminho_315" data-name="Caminho 315" class="cls-20" d="m144.83,468.74v-75.79s-11.46,1.29-11.46,31.71c0,44.07,11.46,44.07,11.46,44.07"/>
              <path id="Caminho_316" data-name="Caminho 316" class="cls-1" d="m144.83,468.74v-75.79s11.46,1.29,11.46,31.71c0,44.07-11.46,44.07-11.46,44.07"/>
              <path id="Caminho_317" data-name="Caminho 317" class="cls-20" d="m160.22,468.73v-44.32s-6.7.75-6.7,18.55c0,25.78,6.7,25.78,6.7,25.78"/>
              <path id="Caminho_318" data-name="Caminho 318" class="cls-1" d="m160.22,468.73v-44.32s6.7.75,6.7,18.55c0,25.78-6.7,25.78-6.7,25.78"/>
              <path id="Caminho_319" data-name="Caminho 319" class="cls-22" d="m283.27,509.78c-.24-5.41-2.82-10.46-7.08-13.82-.31-.23-.63-.44-.97-.64-6.35-3.67-12.69-7.33-19.03-10.99-3.62-2.09-6.76-.95-7.72,2.8-.11.45-.17.94-.26,1.41,0,5.89-.01,11.79-.02,17.68.17,1.64.56,3.25,1.16,4.79,1.01,2.68,2.61,5.1,4.7,7.06.3.23.47.6.45.98-.02,1.68-.01,3.39-.01,5.08-.04,1.17.43,2.29,1.28,3.09l.74.43c.29.03.57,0,.85-.07,2.79-.68,5.58-1.34,8.37-2.03.33-.06.66,0,.94.2,2.81,1.64,5.62,3.28,8.43,4.9,2.18,1.25,4.1,1.49,5.69.53,1.61-.98,2.46-2.84,2.47-5.58.03-5.27.01-10.56,0-15.85m-8.69.91c-.19,1.85-1.21,3.52-2.77,4.54-1.73,1.17-3.69,1.95-5.76,2.26-.27.05-.51-.1-.77-.46-1.82-2.41-3.49-4.94-5.01-7.56-1.06-1.8-1.96-3.69-2.68-5.64-.74-1.76-.97-3.69-.67-5.57.42-1.84,1.39-2.83,3.02-2.75.47.05.93.18,1.36.39l.63.36c.09.07.18.13.27.2,1.5,1.21,2.66,2.8,3.35,4.6q.13.3.25.15c.55-.74,1.46-1.11,2.37-.98.44.06.87.19,1.27.38l.63.36c.17.13.34.25.51.39,1.6,1.39,2.79,3.2,3.42,5.22.3.89.5,1.81.58,2.74v1.37"/>
              <path id="Caminho_320" data-name="Caminho 320" class="cls-22" d="m274.58,510.69c-.19,1.85-1.21,3.52-2.77,4.54-1.73,1.17-3.69,1.95-5.76,2.26-.27.05-.51-.1-.77-.46-1.82-2.41-3.49-4.94-5.01-7.56-1.06-1.8-1.96-3.69-2.68-5.64-.74-1.76-.97-3.69-.67-5.57.42-1.84,1.39-2.83,3.02-2.75.47.05.93.18,1.36.39l.63.36c.09.07.18.13.27.2,1.5,1.21,2.66,2.8,3.35,4.6q.13.3.25.15c.55-.74,1.46-1.11,2.37-.98.44.06.87.19,1.27.38l.63.36c.17.13.34.25.51.39,1.6,1.39,2.79,3.2,3.42,5.22.3.89.5,1.81.58,2.74v1.37"/>
              <path id="Caminho_321" data-name="Caminho 321" class="cls-14" d="m276.56,513.14c-.24-5.41-2.82-10.46-7.08-13.82-.31-.23-.63-.44-.97-.64-6.35-3.67-12.69-7.33-19.03-10.99-3.62-2.09-6.76-.95-7.72,2.8-.11.45-.18.94-.26,1.41,0,5.89-.01,11.79-.02,17.68.17,1.64.56,3.25,1.16,4.79,1.01,2.68,2.61,5.1,4.7,7.06.3.23.47.6.45.98-.02,1.68-.01,3.39-.01,5.08-.04,1.17.43,2.29,1.28,3.09l.74.43c.29.03.57,0,.85-.07,2.79-.68,5.58-1.34,8.37-2.03.33-.06.66,0,.94.2,2.81,1.64,5.62,3.28,8.43,4.9,2.18,1.25,4.1,1.49,5.69.53,1.61-.98,2.46-2.84,2.47-5.58.03-5.27.01-10.56,0-15.85m-8.69.91c-.19,1.85-1.21,3.52-2.77,4.54-1.73,1.17-3.69,1.95-5.76,2.26-.27.05-.51-.1-.77-.46-1.82-2.41-3.49-4.94-5.01-7.56-1.06-1.8-1.96-3.69-2.68-5.64-.74-1.76-.97-3.69-.67-5.57.42-1.84,1.39-2.83,3.02-2.75.47.05.93.18,1.36.39l.63.36c.09.07.18.13.27.2,1.5,1.21,2.66,2.8,3.35,4.6q.13.3.25.15c.55-.74,1.46-1.11,2.37-.98.44.06.87.19,1.27.38l.63.36c.17.13.34.25.51.39,1.6,1.39,2.79,3.2,3.42,5.22.3.89.5,1.81.58,2.74v1.37"/>
              <path id="Caminho_322" data-name="Caminho 322" class="cls-8" d="m267.87,514.05c-.19,1.85-1.21,3.52-2.77,4.54-1.73,1.17-3.69,1.95-5.76,2.26-.27.05-.51-.1-.77-.46-1.82-2.41-3.49-4.94-5.01-7.56-1.06-1.8-1.96-3.69-2.68-5.64-.74-1.76-.97-3.69-.67-5.57.42-1.84,1.39-2.83,3.02-2.75.47.05.93.18,1.36.39l.63.36c.09.07.18.13.27.2,1.5,1.21,2.66,2.8,3.35,4.6q.13.3.25.15c.55-.74,1.46-1.11,2.37-.98.44.06.87.19,1.27.38l.63.36c.17.13.34.25.51.39,1.6,1.39,2.79,3.2,3.42,5.22.3.89.5,1.81.58,2.74v1.37"/>
              <path id="Caminho_323" data-name="Caminho 323" class="cls-8" d="m400.88,346.64s-3.7-4.42-9.06-4.99c-3.62-.32-7.23.81-10.02,3.14,0,0-2.5,2.13,1.77,4.14s9.46,3.93,13.95,2.5c4.21-1.34,4.51-3.53,3.36-4.8"/>
              <path id="Caminho_324" data-name="Caminho 324" class="cls-8" d="m309.28,287.17v31.69l-31.05,16.7v-31.7l31.05-16.7Z"/>
              <path id="Caminho_325" data-name="Caminho 325" class="cls-24" d="m309.28,305.61v13.25l-31.05,16.7v-12.48l9.77-18.32,7.99,6.63,5.85-9.97,7.45,4.19Z"/>
              <path id="Caminho_326" data-name="Caminho 326" class="cls-24" d="m281.61,344.8c.03,1.37-.59,2.67-1.69,3.5-.93.5-1.69-.25-1.69-1.68-.03-1.37.59-2.67,1.69-3.5.93-.5,1.69.25,1.69,1.68"/>
              <path id="Caminho_327" data-name="Caminho 327" class="cls-24" d="m280.77,294.07c.03,1.03-.45,2.01-1.27,2.63-.7.38-1.27-.19-1.27-1.26-.02-1.03.45-2.01,1.27-2.63.7-.38,1.27.19,1.27,1.26"/>
              <path id="Caminho_328" data-name="Caminho 328" class="cls-24" d="m284.09,292.28c.03,1.03-.45,2.01-1.27,2.63-.7.38-1.27-.19-1.27-1.26-.02-1.03.45-2.01,1.27-2.63.7-.38,1.27.19,1.27,1.26"/>
              <path id="Caminho_329" data-name="Caminho 329" class="cls-24" d="m287.43,290.49c.03,1.03-.45,2.01-1.27,2.63-.7.38-1.27-.19-1.27-1.26-.03-1.03.45-2.01,1.27-2.63.7-.38,1.27.19,1.27,1.26"/>
              <path id="Caminho_330" data-name="Caminho 330" class="cls-24" d="m308.98,329.63l-25.42,13.67c-.19.15-.31.38-.3.62,0,.25.14.39.3.3l25.42-13.67c.19-.15.31-.38.3-.62,0-.25-.13-.39-.3-.3"/>
              <path id="Caminho_331" data-name="Caminho 331" class="cls-24" d="m345,294.82l-20.92,11.25c-.37.2-.67-.1-.67-.67-.01-.55.24-1.07.67-1.4l20.92-11.25c.37-.2.67.1.67.67.01.55-.24,1.07-.67,1.4"/>
              <path id="Caminho_332" data-name="Caminho 332" class="cls-24" d="m357.46,294.51l-33.39,17.95c-.37.2-.67-.1-.67-.67-.01-.55.24-1.07.67-1.4l33.39-17.95c.37-.2.67.1.67.67.01.55-.24,1.07-.67,1.4"/>
              <path id="Caminho_333" data-name="Caminho 333" class="cls-24" d="m357.46,300.9l-33.39,17.95c-.37.2-.67-.1-.67-.67-.01-.55.24-1.07.67-1.4l33.39-17.95c.37-.2.67.1.67.67.01.55-.24,1.07-.67,1.4"/>
              <path id="Caminho_334" data-name="Caminho 334" class="cls-24" d="m357.46,307.29l-33.39,17.95c-.37.2-.67-.1-.67-.67-.01-.55.24-1.07.67-1.4l33.39-17.95c.37-.2.67.1.67.67.01.55-.24,1.07-.67,1.4"/>
              <path id="Caminho_335" data-name="Caminho 335" class="cls-24" d="m346.48,325.46l26.93-14.49c2.14-1.15,3.89.57,3.89,3.86s-1.74,6.88-3.89,8.04l-.43.23.21,2.77-2.79-1.39-23.93,12.87c-2.15,1.15-3.88-.57-3.88-3.86s1.74-6.88,3.88-8.04"/>
              <path id="Caminho_336" data-name="Caminho 336" class="cls-20" d="m369.31,253.9v16.81l-10.75,1.31c-.27,1.56-.4,3.15-.41,4.73,0,9.3,4.98,14.17,11.12,10.87l.05-.02h0c6.05-3.45,10.92-13.53,10.92-22.72s-4.87-14.03-10.92-10.98"/>
              <path id="Caminho_337" data-name="Caminho 337" class="cls-1" d="m357.47,270.51l10.75-1.24v-16.86c-5.12,2.76-9.44,10.29-10.75,18.09"/>
              <path id="Caminho_338" data-name="Caminho 338" class="cls-24" d="m333.16,348.69l-7.15,3.85c-1.45.78-2.62-.13-2.62-2.04v-12.1c.02-1.95,1.01-3.77,2.62-4.86l7.15-3.85c1.45-.78,2.62.13,2.62,2.04v12.1c-.02,1.95-1.01,3.77-2.62,4.86"/>
              <path id="Caminho_339" data-name="Caminho 339" class="cls-24" d="m287.02,355.33c-.05.4-.17.79-.37,1.14-.31.53-.66.79-1.02.73s-.56-.41-.58-1.01c-.01-.45,0-.91,0-1.37.01-.69.29-1.35.77-1.83.41-.37.87-.3,1.07.15.05.14.09.28.13.42v1.77Zm-.58-.57v-.65c0-.33-.18-.49-.4-.37-.26.18-.41.48-.4.8,0,.43,0,.87,0,1.3,0,.34.17.5.4.38.26-.18.41-.49.4-.81v-.65"/>
              <path id="Caminho_340" data-name="Caminho 340" class="cls-24" d="m282.5,356.95c.01.34,0,.69-.04,1.03-.07.7-.49,1.31-1.1,1.64-.45.15-.83-.3-.83-1v-1.34c-.01-.79.36-1.54,1-2.01.53-.28.97.15.97.96v.72m-.59.26v-.66c0-.33-.18-.49-.4-.37-.25.18-.4.48-.4.79v1.33c0,.33.17.48.4.36.26-.18.41-.48.4-.8v-.65"/>
              <path id="Caminho_341" data-name="Caminho 341" class="cls-24" d="m279.29,358.02c-.09.18-.16.33-.24.47-.17.3-.41.3-.46,0-.02-.15,0-.31.07-.45.24-.5.47-.99.71-1.48.1-.19.21-.3.34-.28s.17.15.17.34v3.35c0,.24-.1.48-.3.62-.16.08-.29-.05-.29-.32v-2.25Z"/>
              <path id="Caminho_342" data-name="Caminho 342" class="cls-24" d="m283.77,355.6c-.06.14-.11.27-.17.38-.14.28-.32.39-.44.26-.12-.22-.11-.48.03-.68.22-.45.44-.9.65-1.35.1-.21.21-.35.36-.34s.18.17.18.39v3.24c0,.35-.16.65-.36.69-.14.02-.22-.11-.22-.35v-2.05c0-.06,0-.13-.02-.19"/>
              <path id="Caminho_343" data-name="Caminho 343" class="cls-24" d="m287.02,361.7c-.05.4-.17.79-.37,1.14-.31.53-.66.79-1.02.73s-.56-.41-.58-1.01c-.01-.45,0-.91,0-1.37.01-.69.29-1.35.77-1.83.41-.37.87-.3,1.07.15.05.14.09.28.13.42v1.77Zm-.58-.57v-.65c0-.33-.18-.49-.4-.37-.26.18-.41.48-.4.8,0,.43,0,.87,0,1.3,0,.34.17.5.4.38.26-.18.41-.49.4-.81v-.65"/>
              <path id="Caminho_344" data-name="Caminho 344" class="cls-24" d="m282.5,363.32c.01.34,0,.69-.04,1.03-.07.7-.49,1.31-1.1,1.64-.45.15-.83-.3-.83-1v-1.34c0-.79.36-1.54,1-2.01.53-.28.97.15.97.96v.72m-.59.26v-.66c0-.33-.18-.49-.4-.37-.25.18-.4.48-.4.79v1.33c0,.33.17.48.4.36.26-.18.41-.48.4-.8v-.65"/>
              <path id="Caminho_345" data-name="Caminho 345" class="cls-24" d="m279.29,364.38c-.09.18-.16.34-.24.47-.17.3-.41.3-.46,0-.02-.15,0-.31.07-.45.24-.5.47-.99.71-1.48.1-.2.21-.3.34-.28s.17.15.17.34v3.35c0,.24-.1.48-.3.62-.16.08-.29-.05-.29-.32v-2.25Z"/>
              <path id="Caminho_346" data-name="Caminho 346" class="cls-24" d="m283.77,361.97c-.06.14-.11.27-.17.38-.14.28-.32.39-.44.26-.12-.22-.11-.48.03-.68.22-.45.44-.9.65-1.35.1-.21.21-.35.36-.34s.18.17.18.39v3.24c0,.35-.16.65-.36.69-.14.02-.22-.11-.22-.35v-2.05c0-.06,0-.13-.02-.19"/>
              <path id="Caminho_347" data-name="Caminho 347" class="cls-24" d="m287.02,368.06c-.05.4-.17.79-.37,1.14-.31.53-.66.79-1.02.73s-.56-.41-.58-1.01c-.01-.45,0-.91,0-1.37.01-.69.29-1.35.77-1.83.41-.37.87-.3,1.07.15.05.14.09.28.13.42v1.77Zm-.58-.57v-.65c0-.33-.18-.49-.4-.37-.26.18-.41.48-.4.8,0,.43,0,.87,0,1.3,0,.34.17.5.4.38.26-.18.41-.49.4-.81v-.65"/>
              <path id="Caminho_348" data-name="Caminho 348" class="cls-24" d="m282.5,369.68c.01.34,0,.69-.04,1.03-.07.7-.49,1.31-1.1,1.64-.45.15-.83-.3-.83-1v-1.34c0-.79.36-1.54,1-2.01.53-.28.97.15.97.96v.72m-.59.26v-.66c0-.33-.18-.49-.4-.37-.25.18-.4.48-.4.79v1.33c0,.33.17.48.4.36.26-.18.41-.48.4-.8v-.65"/>
              <path id="Caminho_349" data-name="Caminho 349" class="cls-24" d="m279.29,370.75c-.09.18-.16.33-.24.47-.17.3-.41.3-.46,0-.02-.15,0-.31.07-.45.24-.5.47-.99.71-1.48.1-.19.21-.3.34-.28s.17.15.17.34v3.35c0,.24-.1.48-.3.62-.16.08-.29-.05-.29-.32v-2.25Z"/>
              <path id="Caminho_350" data-name="Caminho 350" class="cls-24" d="m283.77,368.34c-.06.14-.11.27-.17.38-.14.28-.32.39-.44.26-.12-.22-.11-.48.03-.68.22-.45.44-.9.65-1.35.1-.21.21-.35.36-.34s.18.17.18.39v3.24c0,.35-.16.65-.36.69-.14.02-.22-.11-.22-.35v-2.05c0-.06,0-.13-.02-.19"/>
              <path id="Caminho_351" data-name="Caminho 351" class="cls-24" d="m298.66,349.07c-.05.4-.17.79-.37,1.14-.31.53-.66.79-1.02.73s-.56-.41-.58-1.01c-.01-.45,0-.91,0-1.37.01-.69.29-1.35.77-1.83.41-.37.87-.3,1.07.15.05.14.09.28.13.42v1.77Zm-.58-.57v-.65c0-.33-.18-.49-.4-.37-.26.18-.41.48-.4.8,0,.43,0,.87,0,1.3,0,.34.17.5.4.38.26-.18.41-.49.4-.81v-.65"/>
              <path id="Caminho_352" data-name="Caminho 352" class="cls-24" d="m294.14,350.69c.01.34,0,.69-.04,1.03-.07.7-.49,1.31-1.1,1.64-.45.15-.83-.3-.83-1v-1.34c-.01-.79.36-1.54,1-2.01.53-.28.97.15.97.96v.72m-.59.26v-.66c0-.33-.18-.49-.4-.37-.25.18-.4.48-.4.79v1.33c0,.33.17.48.4.36.26-.18.41-.48.4-.79v-.65"/>
              <path id="Caminho_353" data-name="Caminho 353" class="cls-24" d="m290.93,351.75c-.09.18-.16.33-.24.47-.17.3-.41.3-.46,0-.02-.15,0-.31.07-.45.24-.5.47-.99.71-1.48.1-.19.21-.3.34-.28s.17.15.17.34v3.35c0,.24-.1.48-.3.62-.16.08-.29-.05-.29-.32v-2.25Z"/>
              <path id="Caminho_354" data-name="Caminho 354" class="cls-24" d="m295.42,349.34c-.06.14-.11.27-.17.38-.14.28-.32.39-.44.26-.12-.22-.11-.48.03-.68.22-.45.44-.9.65-1.35.1-.21.21-.35.36-.34s.18.17.18.39v3.24c0,.35-.16.65-.36.69-.14.02-.22-.11-.22-.35v-2.05c0-.06,0-.13-.02-.19"/>
              <path id="Caminho_355" data-name="Caminho 355" class="cls-24" d="m298.66,355.43c-.05.4-.17.79-.37,1.14-.31.53-.66.79-1.02.73s-.56-.41-.58-1.01c-.01-.45,0-.91,0-1.37.01-.69.29-1.35.77-1.83.41-.37.87-.3,1.07.15.05.14.09.28.13.42v1.77Zm-.58-.57v-.65c0-.33-.18-.49-.4-.37-.26.18-.41.48-.4.8,0,.43,0,.87,0,1.3,0,.34.17.5.4.38.26-.18.41-.49.4-.81v-.65"/>
              <path id="Caminho_356" data-name="Caminho 356" class="cls-24" d="m294.14,357.05c.01.34,0,.69-.04,1.03-.07.7-.49,1.31-1.1,1.64-.45.15-.83-.3-.83-1v-1.34c-.01-.79.36-1.54,1-2.01.53-.28.97.15.97.96v.72m-.59.26v-.66c0-.33-.18-.49-.4-.37-.25.18-.4.48-.4.79v1.33c0,.33.17.48.4.36.26-.18.41-.48.4-.79v-.65"/>
              <path id="Caminho_357" data-name="Caminho 357" class="cls-24" d="m290.93,358.12c-.09.18-.16.33-.24.47-.17.3-.41.3-.46,0-.02-.15,0-.31.07-.45.24-.5.47-.99.71-1.48.1-.19.21-.3.34-.28s.17.15.17.34v3.35c0,.24-.1.48-.3.62-.16.08-.29-.05-.29-.32v-2.25Z"/>
              <path id="Caminho_358" data-name="Caminho 358" class="cls-24" d="m295.42,355.71c-.06.14-.11.27-.17.38-.14.28-.32.39-.44.26-.12-.22-.11-.48.03-.68.22-.45.44-.9.65-1.35.1-.21.21-.35.36-.34s.18.17.18.39v3.24c0,.35-.16.65-.36.69-.14.02-.22-.11-.22-.35v-2.05c0-.06,0-.13-.02-.19"/>
              <path id="Caminho_359" data-name="Caminho 359" class="cls-24" d="m298.66,361.8c-.05.4-.18.79-.37,1.14-.31.53-.66.79-1.02.73s-.56-.41-.58-1.01c-.01-.45,0-.91,0-1.37.01-.69.29-1.35.77-1.83.41-.37.87-.3,1.07.15.05.14.09.28.13.43v1.77Zm-.58-.57v-.65c0-.33-.18-.49-.4-.37-.26.18-.41.48-.4.8,0,.43,0,.87,0,1.3,0,.34.17.49.4.38.26-.18.41-.49.4-.81v-.65"/>
              <path id="Caminho_360" data-name="Caminho 360" class="cls-24" d="m294.14,363.42c.01.34,0,.69-.04,1.03-.07.7-.49,1.31-1.1,1.64-.45.15-.83-.3-.83-1v-1.34c0-.79.36-1.54,1-2.01.53-.28.97.15.97.96v.72m-.59.26v-.66c0-.33-.18-.49-.4-.37-.25.18-.4.48-.4.79v1.33c0,.33.17.48.4.36.26-.18.41-.48.4-.79v-.65"/>
              <path id="Caminho_361" data-name="Caminho 361" class="cls-24" d="m290.93,364.49c-.09.18-.16.33-.24.47-.17.3-.41.3-.46,0-.02-.15,0-.31.07-.45.24-.5.47-.99.71-1.48.1-.19.21-.3.34-.28s.17.15.17.34v3.35c0,.24-.1.48-.3.62-.16.08-.29-.05-.29-.32v-2.25Z"/>
              <path id="Caminho_362" data-name="Caminho 362" class="cls-24" d="m295.42,362.07c-.06.14-.11.27-.17.38-.14.28-.32.39-.44.26-.12-.22-.11-.48.03-.68.22-.45.44-.9.65-1.35.1-.21.21-.35.36-.34s.18.17.18.39v3.24c0,.35-.16.65-.36.69-.14.02-.22-.11-.22-.35v-2.05c0-.06,0-.13-.02-.19"/>
              <path id="Caminho_363" data-name="Caminho 363" class="cls-24" d="m310.31,342.8c-.05.4-.17.79-.37,1.14-.31.53-.66.79-1.02.73s-.56-.41-.58-1.01c-.01-.45,0-.91,0-1.37.01-.69.29-1.35.77-1.83.41-.37.87-.3,1.07.15.05.14.09.28.13.42v1.77Zm-.58-.57v-.65c0-.33-.18-.49-.4-.37-.26.18-.41.48-.4.8,0,.43,0,.87,0,1.3,0,.34.17.5.4.38.26-.18.41-.49.4-.81v-.65"/>
              <path id="Caminho_364" data-name="Caminho 364" class="cls-24" d="m305.79,344.42c.01.34,0,.69-.04,1.03-.07.7-.49,1.31-1.1,1.64-.45.15-.83-.3-.83-1v-1.34c-.01-.79.36-1.54,1-2.01.53-.28.97.15.97.96v.72m-.59.26v-.66c0-.33-.18-.49-.4-.37-.25.18-.4.48-.4.79v1.33c0,.33.17.48.4.36.26-.18.41-.48.4-.79v-.65"/>
              <path id="Caminho_365" data-name="Caminho 365" class="cls-24" d="m302.58,345.49c-.09.18-.16.33-.24.47-.17.3-.41.3-.46,0-.02-.15,0-.31.07-.45.24-.5.47-.99.71-1.48.1-.19.21-.3.34-.28s.17.15.17.34v3.35c0,.24-.1.48-.3.62-.16.08-.29-.05-.29-.32v-2.25Z"/>
              <path id="Caminho_366" data-name="Caminho 366" class="cls-24" d="m307.06,343.07c-.06.14-.11.27-.17.38-.14.28-.32.39-.44.26-.12-.22-.11-.48.03-.68.22-.45.44-.9.65-1.35.1-.21.21-.35.36-.34s.18.17.18.39v3.24c0,.35-.16.65-.36.69-.14.02-.22-.11-.22-.35v-2.05c0-.06,0-.13-.02-.19"/>
              <path id="Caminho_367" data-name="Caminho 367" class="cls-24" d="m310.31,349.17c-.05.4-.17.79-.37,1.14-.31.53-.66.79-1.02.73s-.56-.41-.58-1.01c-.01-.45,0-.91,0-1.37.01-.69.29-1.35.77-1.83.41-.37.87-.3,1.07.15.05.14.09.28.13.42v1.77Zm-.58-.57v-.65c0-.33-.18-.49-.4-.37-.26.18-.41.48-.4.8,0,.43,0,.87,0,1.3,0,.34.17.5.4.38.26-.18.41-.49.4-.81v-.65"/>
              <path id="Caminho_368" data-name="Caminho 368" class="cls-24" d="m305.79,350.79c.01.34,0,.69-.04,1.03-.07.7-.49,1.31-1.1,1.64-.45.15-.83-.3-.83-1v-1.34c-.01-.79.36-1.54,1-2.01.53-.28.97.15.97.96v.72m-.59.26v-.66c0-.33-.18-.49-.4-.37-.25.18-.4.48-.4.79v1.33c0,.33.17.48.4.36.26-.18.41-.48.4-.79v-.65"/>
              <path id="Caminho_369" data-name="Caminho 369" class="cls-24" d="m302.58,351.86c-.09.18-.16.33-.24.47-.17.3-.41.3-.46,0-.02-.15,0-.31.07-.45.24-.5.47-.99.71-1.48.1-.19.21-.3.34-.28s.17.15.17.34v3.35c0,.24-.1.48-.3.62-.16.08-.29-.05-.29-.32v-2.25Z"/>
              <path id="Caminho_370" data-name="Caminho 370" class="cls-24" d="m307.06,349.44c-.06.14-.11.27-.17.38-.14.28-.32.39-.44.26-.12-.22-.11-.48.03-.68.22-.45.44-.9.65-1.35.1-.21.21-.35.36-.34s.18.17.18.39v3.24c0,.35-.16.65-.36.69-.14.02-.22-.11-.22-.35v-2.05c0-.06,0-.13-.02-.19"/>
              <path id="Caminho_371" data-name="Caminho 371" class="cls-24" d="m310.31,355.54c-.05.4-.17.79-.37,1.14-.31.53-.66.79-1.02.73s-.56-.41-.58-1.01c-.01-.45,0-.91,0-1.37.01-.69.29-1.35.77-1.83.41-.37.87-.3,1.07.15.05.14.09.28.13.42v1.77Zm-.58-.57v-.65c0-.33-.18-.49-.4-.37-.26.18-.41.48-.4.8,0,.43,0,.87,0,1.3,0,.34.17.5.4.38.26-.18.41-.49.4-.81v-.65"/>
              <path id="Caminho_372" data-name="Caminho 372" class="cls-24" d="m305.79,357.16c.01.34,0,.69-.04,1.03-.07.7-.49,1.31-1.1,1.64-.45.15-.83-.3-.83-1v-1.34c0-.79.36-1.54,1-2.01.53-.28.97.15.97.96v.72m-.59.26v-.66c0-.33-.18-.49-.4-.37-.25.18-.4.48-.4.79v1.33c0,.33.17.48.4.36.26-.18.41-.48.4-.79v-.65"/>
              <path id="Caminho_373" data-name="Caminho 373" class="cls-24" d="m302.58,358.23c-.09.18-.16.33-.24.47-.17.3-.41.3-.46,0-.02-.15,0-.31.07-.45.24-.5.47-.99.71-1.48.1-.19.21-.3.34-.28s.17.15.17.34v3.35c0,.24-.1.48-.3.62-.16.08-.29-.05-.29-.32v-2.25Z"/>
              <path id="Caminho_374" data-name="Caminho 374" class="cls-24" d="m307.06,355.81c-.06.14-.11.27-.17.38-.14.28-.32.39-.44.26-.12-.22-.11-.48.03-.68.22-.45.44-.9.65-1.35.1-.21.21-.35.36-.34s.18.17.18.39v3.24c0,.35-.16.65-.36.69-.14.02-.22-.11-.22-.35v-2.05c0-.06,0-.13-.02-.19"/>
              <path id="Caminho_375" data-name="Caminho 375" class="cls-10" d="m335.75,266.74l1.32-4.64,1.29,3.24v23.7l-2.61,1.4v-23.7Z"/>
              <path id="Caminho_376" data-name="Caminho 376" class="cls-1" d="m343.1,274.9l-1.29-3.24-1.32,4.64v10.98l2.61-1.4v-10.99Z"/>
              <path id="Caminho_377" data-name="Caminho 377" class="cls-9" d="m346.06,265.05l-1.29-3.24-1.32,4.64v19.24l2.61-1.4v-19.25Z"/>
              <path id="Caminho_378" data-name="Caminho 378" class="cls-10" d="m331.21,268.57l1.32-4.64,1.29,3.24v23.7l-2.61,1.4v-23.7Z"/>
              <path id="Caminho_379" data-name="Caminho 379" class="cls-9" d="m336.92,269.96l-1.29-3.24-1.32,4.64v19.25l2.61-1.4v-19.25Z"/>
              <path id="Caminho_380" data-name="Caminho 380" class="cls-1" d="m330.68,281.58l-1.29-3.24-1.32,4.64v10.98l2.61-1.4v-10.98Z"/>
              <g id="Grupo_376" data-name="Grupo 376" class="cls-27">
                <g id="Grupo_375" data-name="Grupo 375">
                  <g class="cls-17">
                    <g id="Grupo_374" data-name="Grupo 374">
                      <path id="Caminho_381" data-name="Caminho 381" class="cls-22" d="m563.57,207.18c-.66-.11-.93-.67-.93-1.96,0-.51-.02-1.01.01-1.53-.03-1,.4-1.96,1.17-2.6.99-.55,1.98-1.08,2.97-1.56.69-.34,1.18.35,1.2,1.62,0,.37,0,.75.01,1.12.1,1.08-.21,2.16-.87,3.02l-3.56,1.89m1.76-3.21c.3-.16.6-.31.9-.48.61-.34.51-.1.52-1.22,0-.35-.05-.44-.25-.33-.68.38-1.37.72-2.05,1.09-.61.33-.53.06-.53,1.29,0,.29.06.38.22.29.4-.23.8-.43,1.21-.64"/>
                      <path id="Caminho_382" data-name="Caminho 382" class="cls-22" d="m565.3,199.44c-.61.29-1.22.67-1.84.91-.69.27-1.17-.32-1.21-1.56,0-.05,0-.11,0-.16.15-1.34-.18-2.7-.93-3.82-.49-.7-.91-1.46-1.23-2.25-1.26-3.26-.97-8.48.71-12.63,1.19-2.94,2.67-4.91,4.43-5.76,2.99-1.44,5.36,1.3,5.78,6.16.24,3.17-.25,6.36-1.43,9.31-.41,1.03-.76,2.07-1.06,3.14-.17.6-.26,1.22-.24,1.85.01.32.01.65.01.98.11,1.05-.31,2.09-1.11,2.78-.62.41-1.25.68-1.88,1.04m-.02-2.3c.5-.26,1-.54,1.5-.78.21-.1.28-.26.26-.64-.06-1.26.09-2.52.45-3.73.34-1.2.77-2.34,1.19-3.46.92-2.35,1.3-4.89,1.1-7.41-.4-4.4-2.83-6.29-5.39-4.24-3.2,2.56-4.89,9.94-3.2,14.13.27.62.61,1.21.99,1.76.99,1.45,1.45,3.2,1.3,4.95-.02.3.08.31.22.24.52-.28,1.05-.55,1.57-.82"/>
                      <path id="Caminho_383" data-name="Caminho 383" class="cls-22" d="m579.94,167.28s-6.93,13.6-1.73,28.23l2.35-1.24,2.34-1.23c4.37-19.53-2.95-25.75-2.95-25.75"/>
                      <line id="Linha_5" data-name="Linha 5" class="cls-6" x1="576.3" y1="182.64" x2="584.13" y2="178.58"/>
                      <path id="Caminho_384" data-name="Caminho 384" class="cls-22" d="m584.24,183.6l2.46,2.15.44,5.05-4.25,2.24"/>
                      <path id="Caminho_385" data-name="Caminho 385" class="cls-22" d="m576.49,187.68l-2.34,4.68-.2,5.43,4.3-2.26"/>
                      <path id="Caminho_386" data-name="Caminho 386" class="cls-22" d="m582.61,193.25c.05,2.09-.83,4.27-1.98,4.88s-2.11-.6-2.16-2.7.85-4.26,1.99-4.85,2.1.6,2.15,2.67"/>
                      <path id="Caminho_387" data-name="Caminho 387" class="cls-22" d="m604.77,183.19l-5.51,2.91c0-.07-.02-.07-.05-.05-.18.08-.38.12-.58.12-.38,0-.75-.08-1.1-.22-.29-.13-.59-.22-.9-.29-.09-.01-.09-.01-.1.16-.01.65-.21,1.29-.57,1.84-.06.08-.13.16-.2.23-.05.04-.01.04,0,.06l-3.94,2.08s.03-.04.05-.07c-.48.05-.78-.33-.91-1.12l-.02.07c-.17-5.1-.34-10.14-.51-15.12.01,0,0,.05.03.05.02-.25.06-.49.12-.73.1-.55.42-1.04.89-1.35,1.11-.58,2.21-1.15,3.32-1.72.42-.21.76-.06,1,.48.03.06.04.07.08-.01.51-1.11,1.01-2.23,1.44-3.44.36-.98.65-1.98.88-2.99.12-.47.19-.95.23-1.43,0-.17.01-.35.03-.52.06-.97.11-1.95.17-2.92.04-.61.07-1.22.11-1.83.01-.21.07-.42.17-.61.19-.38.45-.73.76-1.02.05-.04.1-.08.16-.13h-.05s.74-.39.74-.39c0,.07.03.03.05.03.17-.01.34.04.46.16.28.3.48.67.57,1.07.17.56.29,1.13.36,1.71.1.72.17,1.45.22,2.21.05.8.08,1.62.07,2.45-.02.75-.05,1.51-.11,2.28-.02.34-.05.68-.08,1.02,0,.08,0,.11.05.08.02-.01.03-.02.05-.03,1.2-.62,2.4-1.24,3.6-1.86.34-.2.74-.26,1.13-.18.47.11.82.53,1.02,1.3.04.15.07.3.09.46,0-.03.01-.05.02-.07l.05.89s-.01.08-.02.13c-.02.34-.07.68-.14,1.01-.11.46-.27.91-.47,1.34-.04.05-.04.12,0,.18.18.3.3.64.36.99.03.15.05.29.05.44,0,.46-.04.91-.15,1.35-.12.47-.29.93-.51,1.37-.03.06-.04.13-.02.19.1.31.17.64.21.97.07.62.03,1.24-.11,1.85-.14.64-.41,1.25-.8,1.78-.04.05-.06.12-.04.18.05.32.06.64.05.97-.03.75-.21,1.49-.52,2.17-.23.57-.61,1.06-1.11,1.43-.03.02-.06.02-.06.11m-8.53-5.05c.07,1.73.14,3.46.21,5.2,0,.11.02.16.09.15.31,0,.62.04.91.14.38.1.74.29,1.12.36.3.05.61,0,.88-.15,1.62-.86,3.24-1.71,4.86-2.56.14-.07.28-.14.41-.22.19-.14.35-.32.46-.53.12-.23.19-.48.19-.74,0-.19-.02-.37-.04-.56-.02-.27-.07-.52-.11-.78-.05-.28,0-.57.16-.81.1-.15.21-.29.31-.42.14-.18.27-.37.37-.57.12-.23.19-.48.2-.73,0-.29-.02-.59-.08-.88-.06-.22-.13-.44-.21-.65-.04-.12-.07-.24-.08-.36-.04-.31.03-.63.2-.89.14-.21.27-.42.39-.65.25-.47.34-1.01.24-1.53-.04-.27-.13-.53-.27-.77-.05-.09-.1-.17-.15-.26-.14-.31-.13-.67.04-.96.09-.18.18-.35.28-.53.11-.2.2-.42.25-.65.12-.53.11-1.2-.2-1.45-.09-.08-.2-.12-.32-.14-.19,0-.37.04-.54.14-1.61.83-3.22,1.66-4.83,2.5-.05.03-.11.05-.16.06-.36.06-.64-.62-.4-1.38.06-.27.23-.51.47-.65.09-.04.09-.05.1-.21.05-.6.11-1.2.15-1.8.07-1.1.09-2.2.04-3.3-.02-.46-.06-.91-.1-1.36-.05-.63-.13-1.26-.25-1.88-.05-.31-.14-.61-.25-.9-.06-.16-.14-.24-.27-.13-.02.01-.03.02-.05.03-.12.07-.23.15-.34.24-.09.09-.1.11-.11.29,0,.14-.01.29-.02.43-.07,1.14-.14,2.28-.2,3.42-.03.64-.1,1.29-.21,1.92-.16.86-.36,1.71-.61,2.55-.24.82-.51,1.62-.82,2.4s-.61,1.56-.95,2.31c-.29.64-.58,1.27-.9,1.88-.04.08-.06.17-.05.26.07,1.7.14,3.41.21,5.12m-4.43,2.56c.08,2.31.16,4.62.24,6.95q0,.15.09.11l3.18-1.67c.09-.05.09-.05.08-.2-.18-4.62-.36-9.19-.53-13.72q0-.15-.09-.11l-3.12,1.62q-.09.05-.08.21c.08,2.26.16,4.53.24,6.82"/>
                    </g>
                  </g>
                </g>
              </g>
              <path id="Caminho_388" data-name="Caminho 388" class="cls-9" d="m566.93,207.18c-.66-.11-.93-.67-.93-1.96,0-.51-.02-1.01.01-1.53-.03-1,.4-1.96,1.17-2.6.99-.55,1.98-1.08,2.97-1.56.69-.34,1.18.35,1.2,1.62,0,.37,0,.75.01,1.12.1,1.08-.21,2.16-.87,3.02l-3.56,1.89m1.76-3.21c.3-.16.6-.31.9-.48.61-.34.51-.1.52-1.22,0-.35-.05-.44-.25-.33-.68.38-1.37.72-2.05,1.09-.61.33-.53.06-.53,1.29,0,.29.06.38.22.29.4-.23.8-.43,1.21-.64"/>
              <path id="Caminho_389" data-name="Caminho 389" class="cls-9" d="m568.66,199.44c-.61.29-1.22.67-1.84.91-.69.27-1.17-.32-1.21-1.56,0-.05,0-.11,0-.16.15-1.34-.18-2.7-.93-3.82-.49-.7-.91-1.46-1.23-2.25-1.26-3.26-.97-8.48.71-12.63,1.19-2.94,2.67-4.91,4.43-5.76,2.99-1.44,5.36,1.3,5.78,6.16.24,3.17-.25,6.36-1.43,9.31-.41,1.03-.76,2.07-1.06,3.14-.17.6-.26,1.22-.24,1.85.01.32.01.65.01.98.11,1.05-.31,2.09-1.11,2.78-.62.41-1.25.68-1.88,1.04m-.02-2.3c.5-.26,1-.54,1.5-.78.21-.1.28-.26.26-.64-.06-1.26.09-2.52.45-3.73.34-1.2.77-2.34,1.19-3.46.92-2.35,1.3-4.89,1.1-7.41-.4-4.4-2.83-6.29-5.39-4.24-3.2,2.56-4.89,9.94-3.2,14.13.27.62.61,1.21.99,1.76.99,1.45,1.45,3.2,1.3,4.95-.02.3.08.31.22.24.52-.28,1.05-.55,1.57-.82"/>
              <path id="Caminho_390" data-name="Caminho 390" class="cls-4" d="m583.29,167.28s-6.93,13.6-1.73,28.23l2.35-1.24,2.34-1.23c4.37-19.53-2.95-25.76-2.95-25.76Z"/>
              <line id="Linha_6" data-name="Linha 6" class="cls-4" x1="579.66" y1="182.64" x2="587.48" y2="178.58"/>
              <path id="Caminho_391" data-name="Caminho 391" class="cls-4" d="m587.6,183.59l2.46,2.15.44,5.05-4.25,2.24"/>
              <path id="Caminho_392" data-name="Caminho 392" class="cls-4" d="m579.84,187.68l-2.34,4.68-.2,5.43,4.3-2.26"/>
              <path id="Caminho_393" data-name="Caminho 393" class="cls-4" d="m585.97,193.25c.05,2.09-.83,4.27-1.98,4.88s-2.11-.6-2.16-2.7.85-4.26,1.99-4.85,2.1.6,2.15,2.67Z"/>
              <path id="Caminho_394" data-name="Caminho 394" class="cls-1" d="m608.12,183.19l-5.51,2.91c0-.07-.02-.07-.05-.05-.18.08-.38.12-.58.12-.38,0-.75-.08-1.1-.22-.29-.13-.59-.22-.9-.29-.09-.01-.09-.01-.1.16-.01.65-.21,1.29-.57,1.84-.06.08-.13.16-.2.23-.05.04-.01.04,0,.06l-3.94,2.08.05-.07c-.48.05-.78-.33-.91-1.12l-.02.07c-.17-5.1-.34-10.14-.51-15.12.01,0,0,.05.03.05.02-.25.06-.49.12-.73.1-.55.42-1.04.89-1.35,1.11-.58,2.21-1.15,3.32-1.72.42-.21.76-.06,1,.48.03.06.04.07.08-.01.51-1.11,1.01-2.23,1.44-3.44.36-.98.65-1.98.88-2.99.12-.47.19-.95.23-1.43,0-.17.01-.35.03-.52.06-.97.11-1.95.17-2.92.04-.61.07-1.22.11-1.83.01-.21.07-.42.17-.61.19-.38.45-.73.76-1.02.05-.04.1-.08.16-.13h-.05s.74-.39.74-.39c0,.07.03.03.05.03.17-.01.34.04.46.16.28.3.48.67.57,1.07.17.56.29,1.13.36,1.71.1.72.17,1.45.22,2.21.05.8.08,1.62.07,2.45-.02.75-.05,1.51-.11,2.28-.02.34-.05.68-.08,1.02,0,.08,0,.11.05.08.02-.01.03-.02.05-.03,1.2-.62,2.4-1.24,3.6-1.86.34-.2.74-.26,1.13-.18.47.11.82.53,1.02,1.3.04.15.07.3.09.46,0-.03.01-.05.02-.07l.05.89s-.01.08-.02.13c-.02.34-.07.68-.14,1.01-.11.46-.27.91-.47,1.34-.04.05-.04.12,0,.18.18.3.3.64.36.99.03.15.05.29.05.44,0,.46-.04.91-.15,1.35-.12.47-.29.93-.51,1.37-.03.06-.04.13-.02.19.1.31.17.64.21.97.07.62.03,1.24-.11,1.85-.14.64-.41,1.25-.8,1.78-.04.05-.06.12-.04.18.05.32.06.64.05.97-.03.75-.21,1.49-.52,2.17-.23.57-.61,1.06-1.11,1.43-.03.02-.06.02-.06.11m-8.53-5.05c.07,1.73.14,3.46.21,5.2,0,.11.02.16.09.15.31,0,.62.04.91.14.38.1.74.29,1.12.36.3.05.61,0,.88-.15,1.62-.86,3.24-1.71,4.86-2.56.14-.07.28-.14.41-.22.19-.14.35-.32.46-.53.12-.23.19-.48.19-.74,0-.19-.02-.37-.04-.56-.02-.27-.07-.52-.11-.78-.05-.28,0-.57.16-.81.1-.15.21-.29.31-.42.14-.18.27-.37.37-.57.12-.23.19-.48.2-.73,0-.29-.02-.59-.08-.88-.06-.22-.13-.44-.21-.65-.04-.12-.07-.24-.08-.36-.04-.31.03-.63.2-.89.14-.21.27-.42.39-.65.25-.47.34-1.01.24-1.53-.04-.27-.13-.53-.27-.77-.05-.09-.1-.17-.15-.26-.14-.31-.13-.67.04-.96.09-.18.18-.35.28-.53.11-.2.2-.42.25-.65.12-.53.11-1.2-.2-1.45-.09-.08-.2-.12-.32-.14-.19,0-.37.04-.54.14-1.61.83-3.22,1.66-4.83,2.5-.05.03-.11.05-.16.06-.36.06-.64-.62-.4-1.38.06-.27.23-.51.47-.65.09-.04.09-.05.1-.21.05-.6.11-1.2.15-1.8.07-1.1.09-2.2.04-3.3-.02-.46-.06-.91-.1-1.36-.05-.63-.13-1.26-.25-1.88-.05-.31-.14-.61-.25-.9-.06-.16-.14-.24-.27-.13-.02.01-.03.02-.05.03-.12.07-.23.15-.34.24-.09.09-.1.11-.11.29,0,.14-.01.29-.02.43-.07,1.14-.14,2.28-.2,3.42-.03.64-.1,1.29-.21,1.92-.16.86-.36,1.71-.61,2.55-.24.82-.51,1.62-.82,2.4s-.61,1.56-.95,2.31c-.29.64-.58,1.27-.9,1.88-.04.08-.06.17-.05.26.07,1.7.14,3.41.21,5.12m-4.43,2.56c.08,2.31.16,4.62.24,6.95q0,.15.09.11l3.18-1.67c.09-.05.09-.05.08-.2-.18-4.62-.36-9.19-.53-13.72q0-.15-.09-.11l-3.12,1.62q-.09.05-.08.21c.08,2.26.16,4.53.24,6.82"/>
              <g id="Grupo_379" data-name="Grupo 379" class="cls-18">
                <g id="Grupo_378" data-name="Grupo 378">
                  <g class="cls-26">
                    <g id="Grupo_377" data-name="Grupo 377">
                      <path id="Caminho_395" data-name="Caminho 395" class="cls-22" d="m535.13,205.74l-11.78,6.35c-.97.53-.83,1.48.31,2.12l27.35,15.23c1.24.67,2.71.76,4.02.25l12.22-6.41c1.02-.54.86-1.52-.36-2.19l-27.84-15.16c-1.21-.64-2.65-.71-3.92-.19m28.58,15l-13.28,7-24.3-13.51,12.91-6.94,24.66,13.45Z"/>
                      <path id="Caminho_396" data-name="Caminho 396" class="cls-22" d="m541.79,215.86c-2.77,1.48-2.36,4.14.93,5.96l10.1-5.36c-3.32-1.82-8.25-2.08-11.03-.6"/>
                      <path id="Caminho_397" data-name="Caminho 397" class="cls-22" d="m541.28,215.58c1.36-.73,1.16-2.03-.45-2.92-1.65-.88-3.61-.99-5.35-.28-1.35.72-1.15,2.02.45,2.91,1.65.89,3.62,1,5.36.29"/>
                    </g>
                  </g>
                </g>
              </g>
              <path id="Caminho_398" data-name="Caminho 398" class="cls-8" d="m535.13,200.71l-11.78,6.35c-.97.53-.83,1.48.31,2.12l27.35,15.23c1.24.67,2.71.76,4.02.25l12.22-6.41c1.02-.54.86-1.52-.36-2.19l-27.84-15.16c-1.21-.64-2.65-.71-3.92-.19m28.58,15l-13.28,7-24.3-13.51,12.91-6.94,24.66,13.45Z"/>
              <path id="Caminho_399" data-name="Caminho 399" class="cls-8" d="m541.79,210.83c-2.77,1.48-2.36,4.14.93,5.96l10.1-5.36c-3.32-1.82-8.25-2.08-11.03-.6"/>
              <path id="Caminho_400" data-name="Caminho 400" class="cls-8" d="m541.28,210.55c1.36-.73,1.16-2.03-.45-2.92-1.65-.88-3.61-.99-5.35-.28-1.35.72-1.15,2.02.45,2.91,1.65.89,3.62,1,5.36.29"/>
              <path id="Caminho_401" data-name="Caminho 401" class="cls-14" d="m414.56,359.14c-2.04-1.27-4.49-1.74-6.85-1.31h0c-7.4,4.62-10.89,7.3-10.89,7.3h0c3.44.73,7.98-1.17,10.07-2.35,3.72-2.08,5.47-2.04,6.37-1.31,1.06.87.57,3.39-2.67,3.65-1.47.01-2.69,1.14-2.83,2.6.68,1.65,3.27,3.16,10.4,3.5l1.05-3.76c-1-3.26-2.52-6.85-4.64-8.33"/>
              <path id="Caminho_402" data-name="Caminho 402" class="cls-22" d="m410.59,365.12c3.24-.26,3.73-2.78,2.67-3.65-.9-.73-2.65-.78-6.37,1.31-2.09,1.17-6.63,3.08-10.07,2.35,0,.1.05,4.18,10.92-2.06,0,0,2.13-1.47.95.53-.58.99-1.55,2.62-.93,4.12.14-1.46,1.36-2.59,2.83-2.6"/>
              <path id="Caminho_403" data-name="Caminho 403" class="cls-13" d="m407.71,357.82c2.37-.43,4.81.04,6.85,1.31,2.12,1.48,3.64,5.06,4.64,8.33l2.33-8.33s-5.44-6.53-13.82-1.31"/>
              <path id="Caminho_404" data-name="Caminho 404" class="cls-10" d="m393.33,489.43c-8.84.29-8.17,5.82-18.09,4.08-5.78-1.01-7.12-6.68-1.81-7.09h-.03s-8.96-1.23-10.4,2.4c-1.74,4.4,4.79,13.39,21.23,16.11,18.93,3.13,17.1-9.9,9.09-15.51"/>
              <path id="Caminho_405" data-name="Caminho 405" class="cls-22" d="m449.35,478.75c0,.49-.82,32.67-.82,32.67-2.46,2.96-3.15,7.01-1.8,10.62l-32.99,26.62s-2.65,1.76,0,4.74l2.45,2.78,36.91-25.97s3.21-2.19,4.86,2.29c2.64,7.16,12.53,29.46,12.24,29.07,0,0,1.64,4.28,7.57.33,1.23-.82,1.04-2.75,0-5.06l-11.76-29.24,37.08-1.31s4.91-.14,4.9-3.43c0,0,0-3.4-7.76-3.59l-37.97-1.31-1.86-39.2h-11.04Z"/>
              <path id="Caminho_406" data-name="Caminho 406" class="cls-22" d="m498.62,457.57c-.59-8.08-5.65-14.26-9.65-17.94-4.73,12.42-13.52,17.85-13.52,17.85-13.43,9.22-39.87,7.49-60.3,4.25,1.78,4.07,6.55,9.61,18.68,15,0,0,17.95,8.39,34.84,4.57,14.56-3.29,30.81-11.79,29.94-23.74"/>
              <path id="Caminho_407" data-name="Caminho 407" class="cls-20" d="m505.54,359.84s-6.47-24.77-13.87-39.69c-4.62-9.32-8.48-12.05-10.49-12.85,4.28,6.69,16.68,27.95,17.89,51.29.64,12.26-3.29,24.97-7.94,35.44,4.14-4.88,8.02-9.96,11.63-15.24,3.74-5.57,4.77-12.54,2.78-18.95"/>
              <path id="Caminho_408" data-name="Caminho 408" class="cls-20" d="m401.89,426.92l18.88-83.2s1.19-6.32,5.1-6.45,19.41-1.82,20.83,17.91c0,0,.75,11.63-3.82,30.47,0,0-5.01,21.45-10.89,34.95-3.07,7.05-7.53,11.56-30.1,6.33"/>
              <path id="Caminho_409" data-name="Caminho 409" class="cls-24" d="m384.87,502.7c-12.91-1.21-20.1-6.62-21.99-11.09,1.07,4.67,7.89,11.1,21.35,13.33,11.61,1.92,15.4-2.24,14.76-7.04-1.03,3.27-5.19,5.64-14.12,4.8"/>
              <path id="Caminho_410" data-name="Caminho 410" class="cls-13" d="m377.57,486.18h0c-1.18.15-2.37.22-3.56.22-5.97.03-4.74,6.07,1.24,7.11,9.92,1.73,9.25-3.8,18.09-4.08l-1.07-5.61.17.98c-5.55,3.18-14.54,1.31-14.86,1.39"/>
              <path id="Caminho_411" data-name="Caminho 411" class="cls-24" d="m496.43,451.91c-.17,12.61-14.95,19.81-26.7,24.46-7,2.79-14.66,3.53-22.06,2.11-4.23-.86-8.36-2.13-12.34-3.79-5.88-2.54-11.22-6.17-15.75-10.69,2.97,2.96,7.67,6.2,15.08,9.35,3.98,1.66,8.12,2.93,12.34,3.79,7.41,1.41,15.06.68,22.06-2.11,11.75-4.65,26.96-11.07,27.38-23.12"/>
              <path id="Caminho_412" data-name="Caminho 412" class="cls-11" d="m449.09,520.29c4.36,3.7,11.88,2.96,15.69-2.26l-2.52-.09c-3.11,3.12-8.01,3.53-11.6.98-3.58-2.84-.41-6.45-.41-6.45,0,0-.82-33.73-.9-33.73,0,.14-.07,2.85-.16,6.66l-.63,26.01s-4.08,4.97.53,8.87"/>
              <path id="Caminho_413" data-name="Caminho 413" class="cls-11" d="m446.74,524.75v-2.72l-32.99,26.62c-.6.44-1.01,1.09-1.15,1.83l34.14-25.73Z"/>
              <path id="Caminho_414" data-name="Caminho 414" class="cls-11" d="m463.67,529.67c1.37,6.41,10.39,27.14,12.93,32.92.37-.2.76-.43,1.17-.7,1.23-.82,1.04-2.75,0-5.06l-11.76-29.24v-9.51s-3.93,4.12-2.34,11.59"/>
              <path id="Caminho_415" data-name="Caminho 415" class="cls-14" d="m360.92,398.1c-3.2-1.46-8-2.81-10.49.79-4.98,7.17,3.54,12.06,3.59,12.08.07-4.27,1.21-10.51,6.9-12.87"/>
              <path id="Caminho_416" data-name="Caminho 416" class="cls-13" d="m369.24,408.62s.42-2.83,2.47-3.87l-7.13-4.57c-1.16-.8-2.38-1.5-3.66-2.09-5.69,2.36-6.83,8.6-6.9,12.87h0c3.72,6.65,13.51,5.97,15.45,5.76-1.23-3.47-.24-8.1-.24-8.1"/>
              <path id="Caminho_417" data-name="Caminho 417" class="cls-20" d="m421.66,428.99s14.39-19.6,14.55-19.62-59.38-4.99-62.86-4.99-4.11,4.25-4.11,4.25c0,0-2.04,9.45,3.28,11.45s34.93,9.19,49.14,8.92"/>
              <path id="Caminho_418" data-name="Caminho 418" class="cls-20" d="m471.07,304.15c.11,0,.22.02.33.03-.67-6.86-6.62-6.07-6.62-6.07,1.14,7.76-7.07,9.94-17.54,10.12-2.63.13-5.18,1.02-7.31,2.56-1.39.97-2.67,2.1-3.8,3.36-.4.44-.6,1.01-.57,1.6,28.66,4.65,35.52-11.6,35.52-11.6"/>
              <path id="Caminho_419" data-name="Caminho 419" class="cls-20" d="m435.58,316.03l-.02-.15c0,.05.01.1.02.15"/>
              <path id="Caminho_420" data-name="Caminho 420" class="cls-10" d="m432.48,271.49s-3.77,11.52,6.66,15.09c0,0,2.64.98.21-2.08-1.83-2.3-1.07-5.66,1.25-5.52,2.27.14,3.06,2.88,4.3,5.7,2.1,4.77,8.55,8.65,15.68,4.63-.03-1.76.12-3.52.45-5.26,2.37-13.15,7.68-22.7,2.86-29.48-5.34-7.52-16.66-3.02-16.66-3.02,0,0-1.31-3.67-6.12-3.43-2.25.12-4.28,1.42-5.31,3.43,0,0-8.98-3.92-13.48,3.18-3.77,5.97,2.45,12.74,2.45,12.74,0,0-3.63,5.6,2.08,9.3l.32-5.81,5.31.52Z"/>
              <path id="Caminho_421" data-name="Caminho 421" class="cls-13" d="m443.39,300.64c-.98,1.72-.71,5.92-.44,8.49,1.36-.56,2.82-.87,4.29-.91,5.17-.09,9.79-.67,13.01-2.16-8.14-7.12-15.44-7.9-16.86-5.42"/>
              <path id="Caminho_422" data-name="Caminho 422" class="cls-14" d="m443.73,281.97c-.77-1.65-1.62-2.89-3.13-2.98-2.32-.14-3.08,3.21-1.25,5.52,0,0,2.7,2.52,1.65,7.27,2.72-2.47,3.78-6.28,2.73-9.8"/>
              <path id="Caminho_423" data-name="Caminho 423" class="cls-14" d="m464.79,298.11h0c-1.61-.92-4.07-3.23-4.21-8.79-7.12,4.02-13.58.14-15.68-4.63-.42-.95-.78-1.89-1.17-2.72,1.05,3.52-.01,7.33-2.73,9.8-.82,3.02-2.38,5.79-4.55,8.05-1.05,1.3-2.39,2.32-3.92,2.99.42,2.54,2.62,3.81,6.2,2.4,6.83-2.7.62,5.37-.76,7.1.62-.55,1.28-1.06,1.96-1.53.93-.68,1.95-1.23,3.02-1.65-.28-2.57-.54-6.78.44-8.49,1.42-2.48,8.72-1.7,16.86,5.42,3.29-1.53,5.11-4.03,4.54-7.95"/>
              <path id="Caminho_424" data-name="Caminho 424" class="cls-13" d="m436.45,299.82c8.7-9.93,2.9-15.32,2.9-15.32,2.43,3.07-.21,2.08-.21,2.08-10.43-3.57-6.66-15.09-6.66-15.09l-5.31-.52-.32,5.81c.22.14.45.28.69.42,0,0,2.45,1.71,1.55,8.9-.85,6.82,4.84,8.7,3.59,13.88-.24.92-.3,1.89-.16,2.83,1.53-.67,2.87-1.7,3.92-2.99"/>
              <path id="Caminho_425" data-name="Caminho 425" class="cls-22" d="m494.05,362.08l-1.21,27.9c3.85-9.6,6.78-20.67,6.22-31.39-.71-10.36-3.1-20.53-7.08-30.12,2.99,15.68,2.06,33.61,2.06,33.61"/>
              <path id="Caminho_426" data-name="Caminho 426" class="cls-10" d="m481.69,307.25s-3.18-2.61-10.62-3.1c0,0-6.86,16.25-35.52,11.6l.73,6.53-11.21,15.11c.26-.07.53-.11.8-.12,3.91-.13,19.41-1.82,20.83,17.91,0,0,.75,11.63-3.82,30.47,0,0-2.8,12.02-6.68,23.72h.02s-.02.02-.03.03c-1.3,3.92-2.72,7.81-4.2,11.2-1.81,4.15-4.1,7.42-10.29,8.34l-.04.05h-.4c-4.3.55-10.4.01-19.37-2.07h0c-4.97-.86-9.98-1.89-14.47-2.9l-13.58,4.04c-16.88,5.12-9.58,22.43-9.58,22.43l13.31,35.69c.33-.08,9.31,1.8,14.86-1.39l-5.06-28.91s64.35,17.89,88.08,1.6c0,0,12.12-7.48,15.55-24.95l3.05-70.45s2.34-45.19-12.36-54.83"/>
              <path id="Caminho_427" data-name="Caminho 427" class="cls-22" d="m464.65,434.38s-2.07,16.6,13.07,11.54c16.41-5.49,30.35-9.07,34.73-48.02,0,0,.78-5.55-1.42-7.08-2.09-1.45-5.65-.52-10.34,4.58-6.51,7.08-14.17,8.65-21.12,11.75,0,0-13.48,4.26-14.92,27.22"/>
              <path id="Caminho_428" data-name="Caminho 428" class="cls-11" d="m466.48,437.97c1.44-22.96,14.92-27.22,14.92-27.22,6.95-3.1,14.62-4.67,21.12-11.75,4.43-4.82,7.86-5.91,9.98-4.8,0-1.28-.54-2.5-1.47-3.38-2.09-1.45-5.65-.52-10.34,4.58-6.51,7.08-14.17,8.65-21.12,11.75,0,0-13.48,4.26-14.92,27.22,0,0-.81,6.55,2.33,10.17-.55-2.14-.72-4.37-.5-6.57"/>
              <path id="Caminho_429" data-name="Caminho 429" class="cls-22" d="m461.32,480.87l8.62,3.58s4.04,1.57,4.73-1.98c.93-4.78,0-43.85,0-43.85,0,0,.71-1.63,3.32-1.63,2.99,0,3.43,2.12,3.43,2.12v44.15c0,11.81-9.58,8.27-9.58,8.27l-17.19-10.13,6.67-.54Z"/>
              <path id="Caminho_430" data-name="Caminho 430" class="cls-22" d="m484.77,469.6l8.62,3.58s4.04,1.57,4.73-1.98c.93-4.78,0-43.85,0-43.85,0,0,.71-1.63,3.32-1.63,2.99,0,3.43,2.12,3.43,2.12v44.15c0,11.81-9.58,8.27-9.58,8.27l-13.87-5.57,3.35-5.1Z"/>
              <path id="Caminho_431" data-name="Caminho 431" class="cls-11" d="m476.78,479.2v-42.08c-.89.16-1.66.71-2.11,1.5,0,0,.93,39.07,0,43.85-.69,3.54-4.73,1.97-4.73,1.97l-8.62-3.58,7.15,5.31s8.31,6.37,8.31-6.98"/>
              <path id="Caminho_432" data-name="Caminho 432" class="cls-11" d="m500.23,467.93v-42.07c-.89.16-1.66.71-2.11,1.5,0,0,.93,39.07,0,43.85-.69,3.54-4.73,1.97-4.73,1.97l-8.62-3.58,7.15,5.31s8.31,6.37,8.31-6.98"/>
              <path id="Caminho_433" data-name="Caminho 433" class="cls-10" d="m427.04,289.21c-1.36-.79-2.24-2.21-2.33-3.78,3.14-.32,6.18-1.26,8.95-2.77-.25-.36-.48-.74-.67-1.14-2.55,1.34-5.32,2.19-8.17,2.54.04-.16.1-.31.18-.45.91-1.53,2.36-2.65,4.07-3.14-.08-.46-.2-.9-.35-1.34-2,.72-3.68,2.12-4.76,3.95-.18.34-.3.7-.35,1.08-.07.45-.07.9-.03,1.35.2,2,1.34,4.28,3.1,5.02.94.31,1.98.03,2.63-.71-.1-.39-.17-.8-.22-1.2-.5.59-1.3.83-2.04.59"/>
            </g>
          </g>
        </g>
      </g>
    </g>
  </g>
</svg>