<?xml version="1.0" encoding="utf-8"?>
<!-- Generator: Adobe Illustrator 27.5.0, SVG Export Plug-In . SVG Version: 6.00 Build 0)  -->
<svg version="1.1" id="Camada_1" xmlns="http://www.w3.org/2000/svg" xmlns:xlink="http://www.w3.org/1999/xlink" x="0px" y="0px"
	 viewBox="0 0 260.82 70.66" style="enable-background:new 0 0 260.82 70.66;" xml:space="preserve">
<style type="text/css">
	.st0{clip-path:url(#SVGID_00000001663312693330994270000014556338516152038301_);}
	.st1{fill:#5F6368;}
	.st2{fill:#843DFF;}
</style>
<g>
	<defs>
		<rect id="SVGID_1_" width="260.82" height="70.66"/>
	</defs>
	<clipPath id="SVGID_00000001653507460697905580000008629311551057914242_">
		<use xlink:href="#SVGID_1_"  style="overflow:visible;"/>
	</clipPath>
	<g id="Grupo_352" style="clip-path:url(#SVGID_00000001653507460697905580000008629311551057914242_);">
		<path id="Caminho_175" class="st1" d="M133.86,32.12v20.61h-4.74V33.47c-0.06-3.39-1.24-4.85-4.29-4.85
			c-2.82,0-4.86,1.24-9.03,4.24v19.88h-4.63V33.47c0-3.56-1.41-4.85-4.29-4.85c-2.77,0-4.79,1.19-9.03,4.24v19.88h-4.79v-27.5h3.95
			l0.28,4.35c3.83-3.33,7.4-5.03,11.24-5.03c3.78,0,6.16,1.64,6.95,4.91c3.78-3.28,7.4-4.91,11.07-4.91
			C131.27,24.56,133.87,27.16,133.86,32.12"/>
		<path id="Caminho_176" class="st1" d="M167.28,48.66l0.51,3.22c-3.45,1.07-7.06,1.58-10.67,1.52c-9.48,0-13.16-3.95-13.16-14.51
			c0-10.78,3.78-14.34,12.65-14.34c8.31,0,11.81,3.05,11.81,8.98c0.06,4.91-1.98,7.79-6.55,7.79H149.1
			c0.45,6.55,2.99,8.02,8.64,8.02C160.93,49.32,164.12,49.09,167.28,48.66 M148.99,37.59h11.63c2.49,0,3-2.03,3-4.06
			c-0.06-3.5-1.86-4.91-6.78-4.91C151.14,28.62,149.16,30.65,148.99,37.59"/>
		<path id="Caminho_177" class="st1" d="M185.34,45.16c0,2.65,1.02,3.67,3.73,3.67h4.18l0.57,3.67c-2.04,0.47-4.12,0.72-6.21,0.74
			c-4.63,0-7.06-2.65-7.06-7.46V29.01h-4.97v-3.51l4.97-0.28V17.1h4.79v8.13h8.75v3.78h-8.75L185.34,45.16z"/>
		<path id="Caminho_178" class="st1" d="M226.94,32.12v20.61h-4.85V33.47c0-3.67-1.08-4.85-3.9-4.85c-3.27,0-6.21,1.53-10.62,4.29
			v19.81h-4.79V13.2h4.79l0.06,10.9c0.02,1.79-0.1,3.59-0.34,5.37c4.12-2.99,8.13-4.91,12.19-4.91
			C224.34,24.56,226.94,27.16,226.94,32.12"/>
		<path id="Caminho_179" class="st1" d="M260.81,33.36v19.37h-3.78l-0.57-4.57c-2.97,3.11-7.05,4.93-11.34,5.07
			c-4.91,0-8.24-2.72-8.24-7.68v-2.99c0-4.29,2.82-6.77,7.62-6.77h11.46v-2.43c0-3.39-1.24-4.74-5.59-4.74
			c-2.88,0-7.62,0.34-11.8,0.73l-0.45-3.56c4.39-0.74,8.82-1.15,13.27-1.24C257.49,24.55,260.82,26.69,260.81,33.36 M255.96,44.99
			V39.4l-10.61,0.06c-2.65,0.11-3.56,1.47-3.56,3.78v1.75c0,2.88,1.3,4.12,4.29,4.12C249.75,48.93,253.24,47.47,255.96,44.99"/>
		<path id="Caminho_180" class="st2" d="M70.67,2.29L70.67,2.29c0-0.1-0.01-0.2-0.02-0.29c-0.16-1.25-1.3-2.13-2.55-1.97
			c-0.31,0.04-0.61,0.14-0.88,0.3c-0.15,0.09-0.29,0.2-0.42,0.32L35.34,24.42L3.86,0.63c-0.12-0.11-0.26-0.21-0.4-0.3
			c-1.08-0.65-2.48-0.3-3.13,0.78C0.17,1.38,0.07,1.67,0.02,1.98C0.01,2.08,0,2.18,0,2.28c0,0.1,0.01,0.2,0.02,0.3v65.49
			c-0.03,0.2-0.03,0.41,0,0.61c0.16,1.25,1.31,2.13,2.56,1.97c0.45-0.06,0.87-0.25,1.21-0.55c0.15-0.13,0.27-0.27,0.39-0.43
			L23.61,47.9l9.71,18.55l0.05,0.1c0.61,1.09,1.99,1.48,3.08,0.86c0.35-0.2,0.65-0.49,0.85-0.84l0.08-0.16l9.78-18.68l19.34,21.93
			c0.11,0.15,0.23,0.29,0.37,0.42c0.94,0.84,2.38,0.77,3.22-0.17c0.31-0.35,0.51-0.78,0.57-1.24c0.01-0.1,0.02-0.2,0.02-0.29
			c0-0.1-0.01-0.2-0.02-0.29V2.58C70.66,2.48,70.67,2.39,70.67,2.29 M42.23,41.69H28.45l6.88-9.86L42.23,41.69z M4.55,62.44V11.49
			l16.82,32.13L4.55,62.44z M8.97,10.17l23.54,17.79L24.37,39.6L8.97,10.17z M35.34,60.54l-7.5-14.33h15L35.34,60.54z M46.3,39.6
			l-8.15-11.63l23.55-17.8L46.3,39.6z M66.12,62.38L49.41,43.43l16.72-31.94V62.38z"/>
	</g>
</g>
</svg>
