<?xml version="1.0" encoding="UTF-8"?>
<svg id="Camada_1" data-name="Camada 1" xmlns="http://www.w3.org/2000/svg" viewBox="0 0 312.66 54.71">
  <defs>
    <style>
      .cls-1 {
        fill: #fff;
      }
    </style>
  </defs>
  <g>
    <path class="cls-1" d="m103.52,22.65v16.14h-3.71v-15.08c-.04-2.65-.97-3.8-3.36-3.8-2.21,0-3.8.97-7.07,3.32v15.56h-3.63v-15.08c0-2.78-1.11-3.8-3.36-3.8s-3.76.93-7.07,3.32v15.56h-3.76v-21.53h3.1l.22,3.41c3.01-2.61,5.79-3.93,8.8-3.93s4.82,1.28,5.44,3.85c2.96-2.56,5.79-3.85,8.66-3.85,3.71,0,5.75,2.03,5.75,5.92Z"/>
    <path class="cls-1" d="m129.68,35.6l.4,2.52c-2.03.84-5.88,1.19-8.36,1.19-7.43,0-10.3-3.1-10.3-11.36s2.96-11.23,9.9-11.23c6.5,0,9.24,2.39,9.24,7.03.04,3.85-1.55,6.1-5.13,6.1h-9.99c.35,5.13,2.34,6.28,6.77,6.28,2.3,0,5.26-.22,7.47-.53Zm-14.32-8.67h9.11c1.95,0,2.34-1.59,2.34-3.18-.04-2.74-1.46-3.85-5.31-3.85-4.47,0-6.01,1.59-6.15,7.03Z"/>
    <path class="cls-1" d="m143.83,32.86c0,2.08.8,2.87,2.92,2.87h3.27l.44,2.87c-1.41.4-3.8.58-4.86.58-3.63,0-5.53-2.08-5.53-5.84v-13.13h-3.89v-2.74l3.89-.22v-6.37h3.76v6.37h6.85v2.96h-6.85v12.65Z"/>
    <path class="cls-1" d="m176.41,22.65v16.14h-3.8v-15.08c0-2.87-.84-3.8-3.05-3.8-2.56,0-4.86,1.19-8.31,3.36v15.52h-3.76V7.84h3.76l.04,8.53c0,1.59-.09,3.05-.27,4.2,3.23-2.34,6.37-3.85,9.55-3.85,3.8,0,5.84,2.03,5.84,5.92Z"/>
    <path class="cls-1" d="m202.93,23.62v15.17h-2.96l-.44-3.58c-1.68,1.72-4.91,3.98-8.89,3.98s-6.46-2.12-6.46-6.01v-2.34c0-3.36,2.21-5.31,5.97-5.31h8.98v-1.9c0-2.65-.97-3.71-4.38-3.71-2.25,0-5.97.27-9.24.57l-.35-2.78c2.96-.49,7.16-.97,10.39-.97,4.78,0,7.38,1.68,7.38,6.9Zm-3.8,9.11v-4.38l-8.31.04c-2.08.09-2.78,1.15-2.78,2.96v1.37c0,2.26,1.02,3.23,3.36,3.23,2.12.04,5.22-1.02,7.74-3.23Z"/>
  </g>
  <path class="cls-1" d="m308.48,10.62l-.44-1.59c-.12-.37-.32-.51-.65-.51h-1.05s0,2.11,0,2.11h-.73v-5.12c.56-.06.95-.07,1.79-.07,1.2,0,1.69.33,1.69,1.48,0,.81-.26,1.22-.94,1.3v.04c.25.07.54.3.65.74l.48,1.62h-.79Zm-1.1-2.74c.72,0,.96-.21.96-.91s-.24-.89-.96-.89c-.4,0-.76,0-1.04,0v1.79h1.04Z"/>
  <path class="cls-1" d="m307.21,13.52c-3.01,0-5.46-2.45-5.46-5.46s2.45-5.46,5.46-5.46,5.46,2.45,5.46,5.46-2.45,5.46-5.46,5.46Zm0-10.34c-2.69,0-4.88,2.19-4.88,4.88s2.19,4.88,4.88,4.88,4.88-2.19,4.88-4.88-2.19-4.88-4.88-4.88Z"/>
  <g>
    <path class="cls-1" d="m222.89,37.94h-1.4l-.17-2.11c-1.68,1.43-3.51,2.45-5.57,2.45-3.57,0-4.94-2.31-4.94-7.28,0-5.34,1.6-7.25,5.16-7.25,1.77,0,3.51.49,5.22,1.34-.11-.94-.11-1.71-.11-2.71v-4.42h1.8v19.98Zm-6.62-1.26c1.63,0,2.8-.66,4.82-2.17v-8.16c-1.85-.63-3.17-1-4.74-1-2.65,0-3.65,1.28-3.65,5.62s1,5.71,3.57,5.71Z"/>
    <path class="cls-1" d="m230.57,18.3c.4,0,.6.2.6.6v1.66c0,.4-.2.6-.6.6h-.83c-.43,0-.6-.2-.6-.6v-1.66c0-.4.17-.6.6-.6h.83Zm-1.31,19.64v-13.81h1.8v13.81h-1.8Z"/>
    <path class="cls-1" d="m247.64,25.29c.57.72.8,1.66.8,2.85,0,2.97-1.51,4.31-5.77,4.31-1.28,0-2.34-.11-3.14-.37-.83,1.06-.8,2.54,1.05,2.85l5.31.88c2.57.4,3.34,1.54,3.34,3.8,0,3.14-1.66,4.17-6.42,4.17s-6.51-1.03-6.51-4.11c0-1.83.57-2.77,2.34-3.65-1.68-.97-1.43-3.31-.06-4.34-1.23-.68-1.71-1.85-1.71-3.54,0-3.03,1.51-4.4,5.79-4.4,1.28,0,2.31.11,3.11.37h4.28l-.11,1.03-2.31.14Zm-2.6,11.9l-5.17-.8-.11.09c-1.26.86-1.68,1.6-1.68,3.08,0,2.11,1.11,2.68,4.74,2.68s4.65-.6,4.65-2.68c0-1.57-.43-2.05-2.42-2.37Zm1.68-9.05c0-2.08-1.03-2.97-4.05-2.97s-4.11.88-4.11,2.97,1.08,2.91,4.11,2.91,4.05-.88,4.05-2.91Z"/>
    <path class="cls-1" d="m256.01,18.3c.4,0,.6.2.6.6v1.66c0,.4-.2.6-.6.6h-.83c-.43,0-.6-.2-.6-.6v-1.66c0-.4.17-.6.6-.6h.83Zm-1.31,19.64v-13.81h1.8v13.81h-1.8Z"/>
    <path class="cls-1" d="m265.55,34.51c0,1.4.66,2,2.03,2h2.25l.23,1.37c-.85.17-2.28.28-2.88.28-2.28,0-3.43-1.23-3.43-3.45v-9.16h-2.51v-1.28l2.51-.14v-4.2h1.8v4.2h4.68v1.43h-4.68v8.96Z"/>
    <path class="cls-1" d="m285.65,28.01v9.93h-1.43l-.23-2.42c-1.14,1.14-3.45,2.65-6.05,2.65-2.4,0-3.94-1.31-3.94-3.74v-1.6c0-2.14,1.31-3.37,3.62-3.37h6.19v-1.46c0-1.74-.66-2.68-2.94-2.68-1.66,0-4.02.17-6.14.4l-.17-1.34c1.88-.28,4.31-.63,6.65-.63,2.83,0,4.42,1.08,4.42,4.25Zm-1.83,6.25v-3.4l-5.91.06c-1.46.06-2.08.8-2.08,2.14v1.2c0,1.57.8,2.31,2.43,2.31,1.6.03,3.91-.86,5.57-2.31Z"/>
    <path class="cls-1" d="m293.59,34.51c0,1.31.71,2,2.03,2h1.46l.2,1.37c-.46.17-1.65.28-2.28.28-1.94,0-3.2-1.17-3.2-3.31v-16.9h1.8v16.55Z"/>
  </g>
  <path id="Caminho_180" data-name="Caminho 180" class="cls-1" d="m54.71,1.78h0c0-.08,0-.15-.02-.23-.12-.97-1-1.65-1.97-1.53-.24.03-.47.11-.68.23-.12.07-.23.15-.32.24l-24.36,18.42L2.99.5c-.09-.09-.2-.17-.31-.24C1.84-.25.76.02.26.86c-.13.21-.21.44-.24.69-.01.08-.02.16-.02.24,0,.08,0,.16.02.24v50.68c-.02.16-.02.32,0,.47.13.97,1.01,1.65,1.98,1.52.35-.05.68-.19.94-.43.11-.1.21-.21.3-.33l15.04-16.85,7.52,14.36.04.08c.47.84,1.54,1.14,2.38.67.27-.15.5-.38.66-.65l.06-.12,7.57-14.46,14.97,16.98c.08.12.18.23.29.32.73.65,1.85.58,2.49-.16.23-.26.38-.59.43-.93.01-.07.02-.15.02-.23,0-.08,0-.15-.02-.23V2.01c.01-.08.02-.15.03-.23m-22.02,30.51h-10.67l5.33-7.63,5.34,7.63ZM3.52,48.35V8.9l13.03,24.87-13.03,14.57ZM6.95,7.88l18.22,13.77-6.3,9.02L6.95,7.88Zm20.41,38.99l-5.8-11.09h11.61l-5.8,11.09Zm8.48-16.21l-6.3-9,18.23-13.78-11.93,22.78Zm15.35,17.64l-12.94-14.67,12.94-24.73v39.4Z"/>
</svg>